<?xml version="1.0" encoding="UTF-8" standalone="no"?>
<!-- Created with Inkscape (http://www.inkscape.org/) -->

<svg
   width="210mm"
   height="297mm"
   viewBox="0 0 210 297"
   version="1.1"
   id="svg1"
   inkscape:version="1.3 (0e150ed6c4, 2023-07-21)"
   sodipodi:docname="arquive-icons.svg"
   xmlns:inkscape="http://www.inkscape.org/namespaces/inkscape"
   xmlns:sodipodi="http://sodipodi.sourceforge.net/DTD/sodipodi-0.dtd"
   xmlns="http://www.w3.org/2000/svg"
   xmlns:svg="http://www.w3.org/2000/svg">
  <sodipodi:namedview
     id="namedview1"
     pagecolor="#ffffff"
     bordercolor="#666666"
     borderopacity="1.0"
     inkscape:showpageshadow="2"
     inkscape:pageopacity="0.0"
     inkscape:pagecheckerboard="0"
     inkscape:deskcolor="#d1d1d1"
     inkscape:document-units="mm"
     showguides="true"
     inkscape:zoom="0.35411406"
     inkscape:cx="-283.80686"
     inkscape:cy="571.84965"
     inkscape:window-width="1920"
     inkscape:window-height="1051"
     inkscape:window-x="-9"
     inkscape:window-y="-9"
     inkscape:window-maximized="1"
     inkscape:current-layer="g7">
    <sodipodi:guide
       position="-35.554348,215.5585"
       orientation="0,-1"
       id="guide4"
       inkscape:locked="false" />
    <sodipodi:guide
       position="236.10566,79.573585"
       orientation="1,0"
       id="guide5"
       inkscape:locked="false" />
    <sodipodi:guide
       position="49.6957,310.13039"
       orientation="1,0"
       id="guide6"
       inkscape:locked="false" />
    <sodipodi:guide
       position="-42.530471,126.27195"
       orientation="0,-1"
       id="guide7"
       inkscape:locked="false" />
    <sodipodi:guide
       position="98.154961,170.72832"
       orientation="0,-1"
       id="guide20"
       inkscape:locked="false" />
    <sodipodi:guide
       position="187.71522,281.49108"
       orientation="0,-1"
       id="guide24"
       inkscape:locked="false" />
  </sodipodi:namedview>
  <defs
     id="defs1" />
  <g
     inkscape:label="Camada 1"
     inkscape:groupmode="layer"
     id="layer1">
    <rect
       style="fill:#362f2a;stroke:#333333;stroke-width:2.11667;stroke-opacity:0;fill-opacity:1"
       id="rect1"
       width="28.392452"
       height="28.392452"
       x="-62.388676"
       y="32.1283" />
    <g
       id="g7"
       transform="translate(181.01314,-1.5849865)">
      <path
         id="rect23"
         style="fill:#362f2a;fill-opacity:1;stroke:#333333;stroke-width:2.11667;stroke-opacity:0"
         d="M -110.18439 83.026527 C -121.89213 83.026527 -131.31747 92.451864 -131.31747 104.1596 L -131.31747 176.95774 C -131.31747 188.66549 -121.89213 198.09082 -110.18439 198.09082 L -103.26233 198.09082 L -69.897442 198.09082 L -48.763848 198.09082 L -48.763848 176.95774 L -48.763848 104.1596 L -48.763848 83.026527 L -69.897442 83.026527 L -103.26233 83.026527 L -110.18439 83.026527 z M -90.107061 120.62217 L -83.59273 133.67615 L -69.146066 133.67615 L -79.547499 145.00517 L -73.966961 160.60267 L -90.040915 151.98821 L -105.50147 160.4218 L -100.44183 145.09767 L -110.9337 133.86115 L -96.505637 133.73299 L -90.107061 120.62217 z "
         inkscape:export-filename="favorito.svg"
         inkscape:export-xdpi="35"
         inkscape:export-ydpi="35" />
      <g
         id="g23"
         transform="translate(-195.54309,5.2301887)">
        <circle
           style="fill:#362f2a;fill-opacity:1;stroke:#333333;stroke-width:2.11667;stroke-opacity:0"
           id="path1"
           cx="-82.858177"
           cy="105.44158"
           r="22.415094"
           inkscape:export-filename="autor.svg"
           inkscape:export-xdpi="35"
           inkscape:export-ydpi="35" />
        <path
           id="circle1"
           style="fill:#362f2a;fill-opacity:1;stroke:#333333;stroke-width:2.11667;stroke-opacity:0"
           d="m -82.858388,134.3944 a 50.060375,50.060375 0 0 0 -48.459052,37.91862 h 97.024052 a 50.060375,50.060375 0 0 0 -48.565,-37.91862 z" />
        <path
           id="rect2"
           style="fill:#362f2a;fill-opacity:1;stroke:#333333;stroke-width:2.11666;stroke-opacity:0"
           d="m -48.413999,112.70379 c 0,0 -1.473601,3.99513 -1.98024,23.59132 2.723154,1.51628 5.337731,3.21985 7.824845,5.0984 2.845895,2.13404 6.112558,6.40548 8.189883,10.54678 -0.08469,-30.3486 -2.345279,-39.2365 -2.345279,-39.2365 l -2.922302,0.0729 -2.922302,0.0724 z"
           sodipodi:nodetypes="cccccccc" />
        <path
           id="path2"
           style="fill:#362f2a;fill-opacity:1;stroke:#333333;stroke-width:2.11667;stroke-opacity:0"
           d="m -43.114989,83.02649 c -1.416099,1.823406 -7.899101,10.221743 -8.01536,11.421828 -0.130004,1.340195 2.523392,16.362822 2.523392,16.362822 l 5.846349,-0.0354 0.198126,-10.44154 c -1.465511,3e-5 -2.653555,-1.136804 -2.653518,-2.539173 0.0037,-1.195912 0.878637,-2.227362 2.101011,-2.476337 z"
           sodipodi:nodetypes="cccccccc" />
        <path
           id="path18"
           style="fill:#362f2a;fill-opacity:1;stroke:#333333;stroke-width:2.11667;stroke-opacity:0"
           d="m -42.023463,83.02649 c 1.416111,1.823406 7.899138,10.221743 8.01536,11.421828 0.130016,1.340195 -2.919607,16.362822 -2.919607,16.362822 l -5.846349,-0.0354 0.198126,-10.44154 c 1.465499,3e-5 2.653543,-1.136817 2.653506,-2.539173 -0.0037,-1.195912 -0.878649,-2.227374 -2.101036,-2.476337 z"
           sodipodi:nodetypes="cccccccc" />
      </g>
    </g>
    <g
       id="g11"
       inkscape:export-filename="genero.svg"
       inkscape:export-xdpi="35"
       inkscape:export-ydpi="35"
       transform="translate(-173.08095,128.38391)">
      <path
         id="rect5"
         style="fill:#362f2a;fill-opacity:1;stroke:#333333;stroke-width:2.11667;stroke-opacity:0"
         d="m 65.201394,104.59509 c -6.960919,0 -12.565193,5.78677 -12.565193,12.97489 v 94.07042 c 0,0.24077 0.02258,0.47539 0.035,0.71284 l 30.418963,-36.50583 30.418976,36.50583 c 0.0124,-0.23745 0.035,-0.47207 0.035,-0.71284 v -94.07042 c 0,-7.18812 -5.60427,-12.97489 -12.56519,-12.97489 z"
         sodipodi:nodetypes="ssscccssss" />
      <path
         id="path6"
         style="fill:#362f2a;fill-opacity:1;stroke:#333333;stroke-width:2.11667;stroke-opacity:0"
         d="m 79.572149,83.015301 c -6.960912,0 -12.565193,5.786775 -12.565193,12.97489 v 6.419039 c 0.109889,-0.003 0.21686,-0.0168 0.32745,-0.0168 h 35.777534 c 6.96091,0 12.56519,5.78678 12.56519,12.9749 v 60.76172 l 12.20275,14.6445 c 0.0124,-0.23745 0.035,-0.47208 0.035,-0.71284 V 95.990191 c 0,-7.188115 -5.60429,-12.97489 -12.5652,-12.97489 z" />
    </g>
    <g
       id="g10"
       transform="translate(181.01314,-183.85844)">
      <circle
         style="fill:#362f2a;fill-opacity:1;stroke:#333333;stroke-width:2.11667;stroke-opacity:0"
         id="circle7"
         cx="-82.858177"
         cy="103.85661"
         r="22.415094"
         inkscape:export-filename="autor.svg"
         inkscape:export-xdpi="35"
         inkscape:export-ydpi="35" />
      <path
         id="path7"
         style="fill:#362f2a;fill-opacity:1;stroke:#333333;stroke-width:2.11667;stroke-opacity:0"
         d="m -82.858388,132.80943 a 50.060375,50.060375 0 0 0 -48.459052,37.91862 h 97.024052 a 50.060375,50.060375 0 0 0 -48.565,-37.91862 z" />
      <g
         id="g9"
         transform="matrix(1.2484117,0,0,0.98105234,-280.54613,-2.5016298)"
         style="stroke-width:0.903603">
        <path
           id="path8"
           style="fill:#362f2a;fill-opacity:1;stroke:#333333;stroke-width:1.91261;stroke-opacity:0"
           d="m 195.18016,85.564372 h 2.12524 v 49.703248 l -3.18786,0.0668 c 0,0 -1.17917,-2.5015 -1.17917,-17.23265 0,-14.73114 2.24179,-32.537408 2.24179,-32.537408 z"
           sodipodi:nodetypes="cccczc" />
        <path
           id="path9"
           style="fill:#362f2a;fill-opacity:1;stroke:#333333;stroke-width:1.91262;stroke-opacity:0"
           d="m 197.30905,152.26187 v 0 -14.82956 l -3.18884,-0.02 c 0,0 -1.25042,4.37386 -1.17956,5.14156 0.0708,0.76772 4.3684,9.70794 4.3684,9.70794 z"
           sodipodi:nodetypes="cccczcc" />
      </g>
    </g>
    <rect
       style="fill:#362f2a;fill-opacity:1;stroke:#333333;stroke-width:2.11667;stroke-opacity:0"
       id="rect11"
       width="35.893574"
       height="90.344879"
       x="-133.63441"
       y="-97.279785"
       ry="7.2645187" />
    <path
       id="rect12"
       style="fill:#362f2a;fill-opacity:1;stroke:#333333;stroke-width:2.11667;stroke-opacity:0"
       d="m -90.934714,-116.08376 c -2.959685,0 -5.34231,2.38262 -5.34231,5.34231 v 6.11952 h 22.309236 v -6.11952 c 0,-2.95969 -2.38263,-5.34231 -5.34231,-5.34231 z m -5.34231,14.23479 v 79.619948 h 22.309236 v -79.619948 z m 0,82.393938 v 7.17785 c 0,2.9596897 2.382625,5.3423097 5.34231,5.3423097 h 11.624616 c 2.95968,0 5.34231,-2.38262 5.34231,-5.3423097 v -7.17785 z" />
    <rect
       style="fill:#362f2a;fill-opacity:1;stroke:#333333;stroke-width:2.11667;stroke-opacity:0"
       id="rect13"
       width="27.063984"
       height="95.940735"
       x="-51.396545"
       y="-113.02545"
       ry="5.160306"
       transform="rotate(-12.057652)" />
    <rect
       style="fill:#362f2a;fill-opacity:1;stroke:#333333;stroke-width:2.11667;stroke-opacity:0"
       id="rect15"
       width="35.893574"
       height="90.344879"
       x="-133.63441"
       y="-97.279785"
       ry="7.2645187" />
    <path
       id="path15"
       style="fill:#362f2a;fill-opacity:1;stroke:#333333;stroke-width:2.11667;stroke-opacity:0"
       d="m -90.934714,-116.08376 c -2.959685,0 -5.34231,2.38262 -5.34231,5.34231 v 6.11952 h 22.309236 v -6.11952 c 0,-2.95969 -2.38263,-5.34231 -5.34231,-5.34231 z m -5.34231,14.23479 v 79.619948 h 22.309236 v -79.619948 z m 0,82.393938 v 7.17785 c 0,2.9596897 2.382625,5.3423097 5.34231,5.3423097 h 11.624616 c 2.95968,0 5.34231,-2.38262 5.34231,-5.3423097 v -7.17785 z" />
    <rect
       style="fill:#362f2a;fill-opacity:1;stroke:#333333;stroke-width:2.11667;stroke-opacity:0"
       id="rect16"
       width="27.063984"
       height="95.940735"
       x="-51.396545"
       y="-113.02545"
       ry="5.160306"
       transform="rotate(-12.057652)"
       inkscape:export-filename="seção.svg"
       inkscape:export-xdpi="35"
       inkscape:export-ydpi="35" />
  </g>
</svg>
