<svg width="326" height="55" viewBox="0 0 326 55" fill="none" xmlns="http://www.w3.org/2000/svg">
<path d="M10.2 29.12L4.02 44H0.96L19.02 0.799998H20.7L38.82 44H35.58L29.4 29.12H10.2ZM19.68 5.6C19.64 5.64 19.56 5.88 19.44 6.32C18.88 8.04 18.34 9.5 17.82 10.7L11.22 26.66H28.38L21.78 10.76C20.38 7.72 19.68 6 19.68 5.6ZM59.2852 44V5.24C62.7252 4.96 65.6452 4.82 68.0452 4.82C71.7252 4.82 74.7652 5.78 77.1652 7.7C79.5652 9.58 80.7652 12.28 80.7652 15.8C80.7652 18.16 80.0852 20.34 78.7252 22.34C77.3652 24.34 75.8252 25.96 74.1052 27.2C78.8652 33.52 81.8052 37.3 82.9252 38.54C85.2052 40.9 87.6852 42.24 90.3652 42.56L90.3052 44.42C88.0652 44.38 86.2452 44.06 84.8452 43.46C83.4452 42.82 82.0452 41.76 80.6452 40.28C79.2852 38.8 76.2652 34.82 71.5852 28.34C68.3452 28.34 65.1652 28.24 62.0452 28.04V44H59.2852ZM70.0852 26.06C71.6452 26.06 73.3252 25.02 75.1252 22.94C76.9252 20.86 77.8252 18.44 77.8252 15.68C77.8252 12.92 76.8852 10.82 75.0052 9.38C73.1252 7.94 70.6852 7.22 67.6852 7.22C66.0852 7.22 64.2052 7.3 62.0452 7.46V25.76C64.9252 25.96 67.6052 26.06 70.0852 26.06ZM123.844 44.6C118.284 44.6 113.624 42.66 109.864 38.78C106.104 34.9 104.224 30.16 104.224 24.56C104.224 18.92 106.104 14.16 109.864 10.28C113.624 6.4 118.284 4.46 123.844 4.46C129.404 4.46 134.044 6.4 137.764 10.28C141.524 14.16 143.404 18.9 143.404 24.5C143.404 27.82 142.704 30.9 141.304 33.74C139.904 36.58 137.984 38.92 135.544 40.76C145.064 46.4 152.384 49.8 157.504 50.96C160.144 51.6 162.684 51.92 165.124 51.92C167.564 51.92 170.184 51.64 172.984 51.08C175.824 50.52 177.844 49.94 179.044 49.34L179.704 50.9C178.184 51.62 175.964 52.32 173.044 53C170.164 53.72 167.444 54.08 164.884 54.08C162.364 54.08 159.664 53.74 156.784 53.06C153.904 52.42 150.904 51.38 147.784 49.94C144.664 48.5 142.244 47.32 140.524 46.4C138.844 45.52 136.404 44.14 133.204 42.26C130.324 43.82 127.204 44.6 123.844 44.6ZM123.784 6.92C118.984 6.92 115.004 8.62 111.844 12.02C108.684 15.42 107.104 19.6 107.104 24.56C107.104 29.48 108.684 33.64 111.844 37.04C115.004 40.4 119.004 42.08 123.844 42.08C126.364 42.08 128.644 41.6 130.684 40.64C126.164 37.6 122.644 36.08 120.124 36.08C118.684 36.08 117.364 36.36 116.164 36.92L115.264 35.24C116.624 34.36 118.144 33.92 119.824 33.92C121.504 33.92 123.144 34.22 124.744 34.82C126.344 35.42 127.684 36.04 128.764 36.68C129.884 37.32 131.324 38.22 133.084 39.38C135.404 37.82 137.224 35.74 138.544 33.14C139.904 30.5 140.584 27.62 140.584 24.5C140.584 19.58 138.984 15.42 135.784 12.02C132.624 8.62 128.624 6.92 123.784 6.92ZM195.453 39.98C192.813 43.06 188.793 44.6 183.393 44.6C177.993 44.6 173.973 43.06 171.333 39.98C168.693 36.9 167.373 32.64 167.373 27.2V5.06H170.133V27.2C170.133 37.16 174.553 42.14 183.393 42.14C192.233 42.14 196.653 37.16 196.653 27.2V5.06H199.413V27.2C199.413 32.64 198.093 36.9 195.453 39.98ZM225.736 44V5.06H228.496V44H225.736ZM267.924 35.84L280.944 5.06H283.824L267.084 44.24H265.464L248.724 5.06H251.724L266.424 39.68C266.624 39.08 267.124 37.8 267.924 35.84ZM304.786 44V1.1H324.706V3.62H307.666V19.4H323.086V21.86H307.666V41.48H325.366V44H304.786Z" fill="#363131"/>
</svg>
