<svg width="33" height="32" viewBox="0 0 33 32" fill="none" xmlns="http://www.w3.org/2000/svg">
<rect x="1" width="32" height="32" rx="16" fill="#362F2A"/>
<path fill-rule="evenodd" clip-rule="evenodd" d="M24.7917 6H18.1809L18.1809 27.1343C20.1901 27.3511 22.3895 27.5142 24.7917 27.6032L24.7917 6ZM14.5183 26.6518C12.0679 26.2668 9.96683 25.804 8.18129 25.3173L12.2563 12.2119L18.1809 14.0566L14.5183 26.6518Z" fill="#F2E9BD"/>
<path fill-rule="evenodd" clip-rule="evenodd" d="M26.4523 28.9108C27.2006 28.3621 27.8994 27.7498 28.5408 27.082C16.6784 28.1531 10.8276 25.3627 6.30677 22.8571C6.30677 22.8571 4.92992 23.7941 7.58594 24.9711C7.76858 25.052 7.9638 25.1394 8.17078 25.232L8.17105 25.2322C10.9742 26.4869 15.9347 28.7074 21.032 28.9451C21.032 28.9451 23.5739 29.089 26.4523 28.9108Z" fill="#F2E9BD"/>
</svg>
