<svg width="250" height="55" viewBox="0 0 250 55" fill="none" xmlns="http://www.w3.org/2000/svg">
<path d="M10.2 29.12L4.02 44H0.96L19.02 0.799998H20.7L38.82 44H35.58L29.4 29.12H10.2ZM19.68 5.6C19.64 5.64 19.56 5.88 19.44 6.32C18.88 8.04 18.34 9.5 17.82 10.7L11.22 26.66H28.38L21.78 10.76C20.38 7.72 19.68 6 19.68 5.6ZM46.9852 44V5.24C50.4252 4.96 53.3452 4.82 55.7452 4.82C59.4252 4.82 62.4652 5.78 64.8652 7.7C67.2652 9.58 68.4652 12.28 68.4652 15.8C68.4652 18.16 67.7852 20.34 66.4252 22.34C65.0652 24.34 63.5252 25.96 61.8052 27.2C66.5652 33.52 69.5052 37.3 70.6252 38.54C72.9052 40.9 75.3852 42.24 78.0652 42.56L78.0052 44.42C75.7652 44.38 73.9452 44.06 72.5452 43.46C71.1452 42.82 69.7452 41.76 68.3452 40.28C66.9852 38.8 63.9652 34.82 59.2852 28.34C56.0452 28.34 52.8652 28.24 49.7452 28.04V44H46.9852ZM57.7852 26.06C59.3452 26.06 61.0252 25.02 62.8252 22.94C64.6252 20.86 65.5252 18.44 65.5252 15.68C65.5252 12.92 64.5852 10.82 62.7052 9.38C60.8252 7.94 58.3852 7.22 55.3852 7.22C53.7852 7.22 51.9052 7.3 49.7452 7.46V25.76C52.6252 25.96 55.3052 26.06 57.7852 26.06ZM99.2442 44.6C93.6842 44.6 89.0242 42.66 85.2642 38.78C81.5042 34.9 79.6242 30.16 79.6242 24.56C79.6242 18.92 81.5042 14.16 85.2642 10.28C89.0242 6.4 93.6842 4.46 99.2442 4.46C104.804 4.46 109.444 6.4 113.164 10.28C116.924 14.16 118.804 18.9 118.804 24.5C118.804 27.82 118.104 30.9 116.704 33.74C115.304 36.58 113.384 38.92 110.944 40.76C120.464 46.4 127.784 49.8 132.904 50.96C135.544 51.6 138.084 51.92 140.524 51.92C142.964 51.92 145.584 51.64 148.384 51.08C151.224 50.52 153.244 49.94 154.444 49.34L155.104 50.9C153.584 51.62 151.364 52.32 148.444 53C145.564 53.72 142.844 54.08 140.284 54.08C137.764 54.08 135.064 53.74 132.184 53.06C129.304 52.42 126.304 51.38 123.184 49.94C120.064 48.5 117.644 47.32 115.924 46.4C114.244 45.52 111.804 44.14 108.604 42.26C105.724 43.82 102.604 44.6 99.2442 44.6ZM99.1842 6.92C94.3842 6.92 90.4042 8.62 87.2442 12.02C84.0842 15.42 82.5042 19.6 82.5042 24.56C82.5042 29.48 84.0842 33.64 87.2442 37.04C90.4042 40.4 94.4042 42.08 99.2442 42.08C101.764 42.08 104.044 41.6 106.084 40.64C101.564 37.6 98.0442 36.08 95.5242 36.08C94.0842 36.08 92.7642 36.36 91.5642 36.92L90.6642 35.24C92.0242 34.36 93.5442 33.92 95.2242 33.92C96.9042 33.92 98.5442 34.22 100.144 34.82C101.744 35.42 103.084 36.04 104.164 36.68C105.284 37.32 106.724 38.22 108.484 39.38C110.804 37.82 112.624 35.74 113.944 33.14C115.304 30.5 115.984 27.62 115.984 24.5C115.984 19.58 114.384 15.42 111.184 12.02C108.024 8.62 104.024 6.92 99.1842 6.92ZM158.553 39.98C155.913 43.06 151.893 44.6 146.493 44.6C141.093 44.6 137.073 43.06 134.433 39.98C131.793 36.9 130.473 32.64 130.473 27.2V5.06H133.233V27.2C133.233 37.16 137.653 42.14 146.493 42.14C155.333 42.14 159.753 37.16 159.753 27.2V5.06H162.513V27.2C162.513 32.64 161.193 36.9 158.553 39.98ZM176.536 44V5.06H179.296V44H176.536ZM206.424 35.84L219.444 5.06H222.324L205.584 44.24H203.964L187.224 5.06H190.224L204.924 39.68C205.124 39.08 205.624 37.8 206.424 35.84ZM230.266 44V5.06H248.446V7.46H233.026V21.62H246.946V23.96H233.026V41.48H249.046V44H230.266Z" fill="#363131"/>
</svg>
