<svg width="1280" height="1330" viewBox="0 0 1280 1330" fill="none" xmlns="http://www.w3.org/2000/svg">
<rect width="1280" height="1330" fill="#1E1E1E"/>
<rect width="1280" height="720" fill="white"/>
<path d="M452.2 595.12L446.02 610H442.96L461.02 566.8H462.7L480.82 610H477.58L471.4 595.12H452.2ZM461.68 571.6C461.64 571.64 461.56 571.88 461.44 572.32C460.88 574.04 460.34 575.5 459.82 576.7L453.22 592.66H470.38L463.78 576.76C462.38 573.72 461.68 572 461.68 571.6ZM501.285 610V571.24C504.725 570.96 507.645 570.82 510.045 570.82C513.725 570.82 516.765 571.78 519.165 573.7C521.565 575.58 522.765 578.28 522.765 581.8C522.765 584.16 522.085 586.34 520.725 588.34C519.365 590.34 517.825 591.96 516.105 593.2C520.865 599.52 523.805 603.3 524.925 604.54C527.205 606.9 529.685 608.24 532.365 608.56L532.305 610.42C530.065 610.38 528.245 610.06 526.845 609.46C525.445 608.82 524.045 607.76 522.645 606.28C521.285 604.8 518.265 600.82 513.585 594.34C510.345 594.34 507.165 594.24 504.045 594.04V610H501.285ZM512.085 592.06C513.645 592.06 515.325 591.02 517.125 588.94C518.925 586.86 519.825 584.44 519.825 581.68C519.825 578.92 518.885 576.82 517.005 575.38C515.125 573.94 512.685 573.22 509.685 573.22C508.085 573.22 506.205 573.3 504.045 573.46V591.76C506.925 591.96 509.605 592.06 512.085 592.06ZM565.844 610.6C560.284 610.6 555.624 608.66 551.864 604.78C548.104 600.9 546.224 596.16 546.224 590.56C546.224 584.92 548.104 580.16 551.864 576.28C555.624 572.4 560.284 570.46 565.844 570.46C571.404 570.46 576.044 572.4 579.764 576.28C583.524 580.16 585.404 584.9 585.404 590.5C585.404 593.82 584.704 596.9 583.304 599.74C581.904 602.58 579.984 604.92 577.544 606.76C587.064 612.4 594.384 615.8 599.504 616.96C602.144 617.6 604.684 617.92 607.124 617.92C609.564 617.92 612.184 617.64 614.984 617.08C617.824 616.52 619.844 615.94 621.044 615.34L621.704 616.9C620.184 617.62 617.964 618.32 615.044 619C612.164 619.72 609.444 620.08 606.884 620.08C604.364 620.08 601.664 619.74 598.784 619.06C595.904 618.42 592.904 617.38 589.784 615.94C586.664 614.5 584.244 613.32 582.524 612.4C580.844 611.52 578.404 610.14 575.204 608.26C572.324 609.82 569.204 610.6 565.844 610.6ZM565.784 572.92C560.984 572.92 557.004 574.62 553.844 578.02C550.684 581.42 549.104 585.6 549.104 590.56C549.104 595.48 550.684 599.64 553.844 603.04C557.004 606.4 561.004 608.08 565.844 608.08C568.364 608.08 570.644 607.6 572.684 606.64C568.164 603.6 564.644 602.08 562.124 602.08C560.684 602.08 559.364 602.36 558.164 602.92L557.264 601.24C558.624 600.36 560.144 599.92 561.824 599.92C563.504 599.92 565.144 600.22 566.744 600.82C568.344 601.42 569.684 602.04 570.764 602.68C571.884 603.32 573.324 604.22 575.084 605.38C577.404 603.82 579.224 601.74 580.544 599.14C581.904 596.5 582.584 593.62 582.584 590.5C582.584 585.58 580.984 581.42 577.784 578.02C574.624 574.62 570.624 572.92 565.784 572.92ZM637.453 605.98C634.813 609.06 630.793 610.6 625.393 610.6C619.993 610.6 615.973 609.06 613.333 605.98C610.693 602.9 609.373 598.64 609.373 593.2V571.06H612.133V593.2C612.133 603.16 616.553 608.14 625.393 608.14C634.233 608.14 638.653 603.16 638.653 593.2V571.06H641.413V593.2C641.413 598.64 640.093 602.9 637.453 605.98ZM667.736 610V571.06H670.496V610H667.736ZM709.924 601.84L722.944 571.06H725.824L709.084 610.24H707.464L690.724 571.06H693.724L708.424 605.68C708.624 605.08 709.124 603.8 709.924 601.84ZM746.786 610V567.1H766.706V569.62H749.666V585.4H765.086V587.86H749.666V607.48H767.366V610H746.786Z" fill="#363131"/>
<path d="M42.2 47.12L36.02 62H32.96L51.02 18.8H52.7L70.82 62H67.58L61.4 47.12H42.2ZM51.68 23.6C51.64 23.64 51.56 23.88 51.44 24.32C50.88 26.04 50.34 27.5 49.82 28.7L43.22 44.66H60.38L53.78 28.76C52.38 25.72 51.68 24 51.68 23.6ZM78.9852 62V23.24C82.4252 22.96 85.3452 22.82 87.7452 22.82C91.4252 22.82 94.4652 23.78 96.8652 25.7C99.2652 27.58 100.465 30.28 100.465 33.8C100.465 36.16 99.7852 38.34 98.4252 40.34C97.0652 42.34 95.5252 43.96 93.8052 45.2C98.5652 51.52 101.505 55.3 102.625 56.54C104.905 58.9 107.385 60.24 110.065 60.56L110.005 62.42C107.765 62.38 105.945 62.06 104.545 61.46C103.145 60.82 101.745 59.76 100.345 58.28C98.9852 56.8 95.9652 52.82 91.2852 46.34C88.0452 46.34 84.8652 46.24 81.7452 46.04V62H78.9852ZM89.7852 44.06C91.3452 44.06 93.0252 43.02 94.8252 40.94C96.6252 38.86 97.5252 36.44 97.5252 33.68C97.5252 30.92 96.5852 28.82 94.7052 27.38C92.8252 25.94 90.3852 25.22 87.3852 25.22C85.7852 25.22 83.9052 25.3 81.7452 25.46V43.76C84.6252 43.96 87.3052 44.06 89.7852 44.06ZM131.244 62.6C125.684 62.6 121.024 60.66 117.264 56.78C113.504 52.9 111.624 48.16 111.624 42.56C111.624 36.92 113.504 32.16 117.264 28.28C121.024 24.4 125.684 22.46 131.244 22.46C136.804 22.46 141.444 24.4 145.164 28.28C148.924 32.16 150.804 36.9 150.804 42.5C150.804 45.82 150.104 48.9 148.704 51.74C147.304 54.58 145.384 56.92 142.944 58.76C152.464 64.4 159.784 67.8 164.904 68.96C167.544 69.6 170.084 69.92 172.524 69.92C174.964 69.92 177.584 69.64 180.384 69.08C183.224 68.52 185.244 67.94 186.444 67.34L187.104 68.9C185.584 69.62 183.364 70.32 180.444 71C177.564 71.72 174.844 72.08 172.284 72.08C169.764 72.08 167.064 71.74 164.184 71.06C161.304 70.42 158.304 69.38 155.184 67.94C152.064 66.5 149.644 65.32 147.924 64.4C146.244 63.52 143.804 62.14 140.604 60.26C137.724 61.82 134.604 62.6 131.244 62.6ZM131.184 24.92C126.384 24.92 122.404 26.62 119.244 30.02C116.084 33.42 114.504 37.6 114.504 42.56C114.504 47.48 116.084 51.64 119.244 55.04C122.404 58.4 126.404 60.08 131.244 60.08C133.764 60.08 136.044 59.6 138.084 58.64C133.564 55.6 130.044 54.08 127.524 54.08C126.084 54.08 124.764 54.36 123.564 54.92L122.664 53.24C124.024 52.36 125.544 51.92 127.224 51.92C128.904 51.92 130.544 52.22 132.144 52.82C133.744 53.42 135.084 54.04 136.164 54.68C137.284 55.32 138.724 56.22 140.484 57.38C142.804 55.82 144.624 53.74 145.944 51.14C147.304 48.5 147.984 45.62 147.984 42.5C147.984 37.58 146.384 33.42 143.184 30.02C140.024 26.62 136.024 24.92 131.184 24.92ZM190.553 57.98C187.913 61.06 183.893 62.6 178.493 62.6C173.093 62.6 169.073 61.06 166.433 57.98C163.793 54.9 162.473 50.64 162.473 45.2V23.06H165.233V45.2C165.233 55.16 169.653 60.14 178.493 60.14C187.333 60.14 191.753 55.16 191.753 45.2V23.06H194.513V45.2C194.513 50.64 193.193 54.9 190.553 57.98ZM208.536 62V23.06H211.296V62H208.536ZM238.424 53.84L251.444 23.06H254.324L237.584 62.24H235.964L219.224 23.06H222.224L236.924 57.68C237.124 57.08 237.624 55.8 238.424 53.84ZM262.266 62V23.06H280.446V25.46H265.026V39.62H278.946V41.96H265.026V59.48H281.046V62H262.266ZM314.432 62V19.1H317.312V59.36H337.052V62H314.432ZM373.762 57.86C371.002 61.1 366.802 62.72 361.162 62.72C355.522 62.72 351.302 61.08 348.502 57.8C345.742 54.52 344.362 50.04 344.362 44.36V19.1H347.242V44.36C347.242 54.92 351.862 60.2 361.102 60.2C370.382 60.2 375.022 54.92 375.022 44.36V19.1H377.902V44.36C377.902 50.08 376.522 54.58 373.762 57.86ZM413.52 59.78H411.9L399.36 29.42C398.64 27.74 398.06 26.26 397.62 24.98L397.02 29.54L392.1 62H389.16L396.24 18.74H397.92L411.3 50.54C411.98 52.02 412.52 53.42 412.92 54.74C413.04 54.3 413.66 52.92 414.78 50.6L429.72 18.74H431.34L437.88 62H434.88L430.2 29.42C429.88 27.38 429.72 25.84 429.72 24.8C429.68 24.84 429.58 25.04 429.42 25.4C429.3 25.72 429.06 26.28 428.7 27.08C428.38 27.84 428.04 28.64 427.68 29.48L413.52 59.78ZM449.666 62V19.1H452.546V62H449.666Z" fill="#363131"/>
<path d="M42.2 669.12L36.02 684H32.96L51.02 640.8H52.7L70.82 684H67.58L61.4 669.12H42.2ZM51.68 645.6C51.64 645.64 51.56 645.88 51.44 646.32C50.88 648.04 50.34 649.5 49.82 650.7L43.22 666.66H60.38L53.78 650.76C52.38 647.72 51.68 646 51.68 645.6ZM91.2852 684V645.24C94.7252 644.96 97.6452 644.82 100.045 644.82C103.725 644.82 106.765 645.78 109.165 647.7C111.565 649.58 112.765 652.28 112.765 655.8C112.765 658.16 112.085 660.34 110.725 662.34C109.365 664.34 107.825 665.96 106.105 667.2C110.865 673.52 113.805 677.3 114.925 678.54C117.205 680.9 119.685 682.24 122.365 682.56L122.305 684.42C120.065 684.38 118.245 684.06 116.845 683.46C115.445 682.82 114.045 681.76 112.645 680.28C111.285 678.8 108.265 674.82 103.585 668.34C100.345 668.34 97.1652 668.24 94.0452 668.04V684H91.2852ZM102.085 666.06C103.645 666.06 105.325 665.02 107.125 662.94C108.925 660.86 109.825 658.44 109.825 655.68C109.825 652.92 108.885 650.82 107.005 649.38C105.125 647.94 102.685 647.22 99.6852 647.22C98.0852 647.22 96.2052 647.3 94.0452 647.46V665.76C96.9252 665.96 99.6052 666.06 102.085 666.06ZM155.844 684.6C150.284 684.6 145.624 682.66 141.864 678.78C138.104 674.9 136.224 670.16 136.224 664.56C136.224 658.92 138.104 654.16 141.864 650.28C145.624 646.4 150.284 644.46 155.844 644.46C161.404 644.46 166.044 646.4 169.764 650.28C173.524 654.16 175.404 658.9 175.404 664.5C175.404 667.82 174.704 670.9 173.304 673.74C171.904 676.58 169.984 678.92 167.544 680.76C177.064 686.4 184.384 689.8 189.504 690.96C192.144 691.6 194.684 691.92 197.124 691.92C199.564 691.92 202.184 691.64 204.984 691.08C207.824 690.52 209.844 689.94 211.044 689.34L211.704 690.9C210.184 691.62 207.964 692.32 205.044 693C202.164 693.72 199.444 694.08 196.884 694.08C194.364 694.08 191.664 693.74 188.784 693.06C185.904 692.42 182.904 691.38 179.784 689.94C176.664 688.5 174.244 687.32 172.524 686.4C170.844 685.52 168.404 684.14 165.204 682.26C162.324 683.82 159.204 684.6 155.844 684.6ZM155.784 646.92C150.984 646.92 147.004 648.62 143.844 652.02C140.684 655.42 139.104 659.6 139.104 664.56C139.104 669.48 140.684 673.64 143.844 677.04C147.004 680.4 151.004 682.08 155.844 682.08C158.364 682.08 160.644 681.6 162.684 680.64C158.164 677.6 154.644 676.08 152.124 676.08C150.684 676.08 149.364 676.36 148.164 676.92L147.264 675.24C148.624 674.36 150.144 673.92 151.824 673.92C153.504 673.92 155.144 674.22 156.744 674.82C158.344 675.42 159.684 676.04 160.764 676.68C161.884 677.32 163.324 678.22 165.084 679.38C167.404 677.82 169.224 675.74 170.544 673.14C171.904 670.5 172.584 667.62 172.584 664.5C172.584 659.58 170.984 655.42 167.784 652.02C164.624 648.62 160.624 646.92 155.784 646.92ZM227.453 679.98C224.813 683.06 220.793 684.6 215.393 684.6C209.993 684.6 205.973 683.06 203.333 679.98C200.693 676.9 199.373 672.64 199.373 667.2V645.06H202.133V667.2C202.133 677.16 206.553 682.14 215.393 682.14C224.233 682.14 228.653 677.16 228.653 667.2V645.06H231.413V667.2C231.413 672.64 230.093 676.9 227.453 679.98ZM257.736 684V645.06H260.496V684H257.736ZM299.924 675.84L312.944 645.06H315.824L299.084 684.24H297.464L280.724 645.06H283.724L298.424 679.68C298.624 679.08 299.124 677.8 299.924 675.84ZM336.786 684V641.1H356.706V643.62H339.666V659.4H355.086V661.86H339.666V681.48H357.366V684H336.786Z" fill="#363131"/>
<path d="M534.32 62.3C532.4 62.3 530.5 61.78 528.62 60.74C526.74 59.66 525.24 57.58 524.12 54.5L522.62 50.6H505.82L501.02 62H498.32L515.12 22.4H516.92L530.12 54.5C531.12 56.82 532.06 58.42 532.94 59.3C533.82 60.14 535.08 60.64 536.72 60.8V62C536 62.2 535.2 62.3 534.32 62.3ZM521.42 48.2L514.22 30.8L506.72 48.2H521.42ZM539.886 41C539.886 38.96 539.606 37.46 539.046 36.5C538.486 35.5 537.366 35 535.686 35H535.086V33.8H539.886C541.406 33.8 542.546 34.02 543.306 34.46C544.106 34.86 544.666 35.54 544.986 36.5H545.286C546.006 35.58 546.966 34.8 548.166 34.16C549.406 33.52 550.846 33.2 552.486 33.2C554.086 33.2 555.286 33.5 556.086 34.1C556.766 34.62 557.466 35.52 558.186 36.8L555.786 38.6C555.346 38 554.706 37.56 553.866 37.28C553.026 36.96 552.066 36.8 550.986 36.8C549.786 36.8 548.686 37.08 547.686 37.64C546.686 38.16 545.886 38.88 545.286 39.8V62H539.886V41ZM574.306 62.6C571.426 62.6 568.986 61.96 566.986 60.68C565.026 59.36 563.546 57.6 562.546 55.4C561.586 53.16 561.106 50.66 561.106 47.9C561.106 45.14 561.586 42.66 562.546 40.46C563.546 38.22 565.026 36.46 566.986 35.18C568.986 33.86 571.426 33.2 574.306 33.2C578.706 33.2 581.606 33.9 583.006 35.3C583.686 35.98 584.106 36.82 584.266 37.82C584.426 38.78 584.506 40.54 584.506 43.1H583.306C583.146 40.62 582.366 38.76 580.966 37.52C579.566 36.24 577.746 35.6 575.506 35.6C572.626 35.6 570.446 36.74 568.966 39.02C567.526 41.3 566.806 44.26 566.806 47.9C566.806 51.54 567.526 54.5 568.966 56.78C570.446 59.06 572.626 60.2 575.506 60.2C577.546 60.2 579.226 59.82 580.546 59.06C581.866 58.26 583.086 57.04 584.206 55.4L585.406 56.3C584.086 58.54 582.526 60.16 580.726 61.16C578.926 62.12 576.786 62.6 574.306 62.6ZM591.73 29.6C591.73 27.56 591.45 26.06 590.89 25.1C590.33 24.1 589.21 23.6 587.53 23.6H586.33V22.4H591.73C593.21 22.4 594.31 22.6 595.03 23C595.79 23.36 596.33 24.04 596.65 25.04C596.97 26.04 597.13 27.56 597.13 29.6V36.2C597.97 35.36 599.05 34.66 600.37 34.1C601.73 33.5 603.25 33.2 604.93 33.2C607.93 33.2 610.37 34 612.25 35.6C614.17 37.2 615.13 40 615.13 44V62H609.73V44C609.73 41.2 609.09 39.16 607.81 37.88C606.57 36.56 605.01 35.9 603.13 35.9C601.01 35.9 599.01 36.96 597.13 39.08V62H591.73V29.6ZM626.668 30.2C625.748 30.2 624.948 29.82 624.268 29.06C623.628 28.3 623.308 27.4 623.308 26.36C623.308 25.52 623.548 24.86 624.028 24.38C624.548 23.9 625.228 23.66 626.068 23.66C626.988 23.66 627.768 24.04 628.408 24.8C629.088 25.56 629.428 26.46 629.428 27.5C629.428 28.34 629.168 29 628.648 29.48C628.168 29.96 627.508 30.2 626.668 30.2ZM624.388 41C624.388 38.96 624.108 37.46 623.548 36.5C622.988 35.5 621.868 35 620.188 35H618.988V33.8H624.388C625.868 33.8 626.968 34 627.688 34.4C628.448 34.76 628.988 35.44 629.308 36.44C629.628 37.44 629.788 38.96 629.788 41V62H624.388V41ZM639.874 40.7C638.914 38.46 637.994 36.9 637.114 36.02C636.234 35.1 635.074 34.6 633.634 34.52V33.32C633.834 33.32 634.114 33.3 634.474 33.26C634.874 33.22 635.274 33.2 635.674 33.2C637.794 33.2 639.714 33.74 641.434 34.82C643.154 35.86 644.634 37.82 645.874 40.7L651.274 53.6L659.674 33.8H662.674L650.374 62.6H649.174L639.874 40.7ZM674.798 62.6C673.518 62.6 672.218 62.34 670.898 61.82C669.578 61.26 668.438 60.36 667.478 59.12C666.558 57.88 666.098 56.24 666.098 54.2C666.098 51.16 667.498 49 670.298 47.72C673.138 46.44 676.838 45.8 681.398 45.8H683.198C683.198 41.88 682.658 39.2 681.578 37.76C680.498 36.32 678.938 35.6 676.898 35.6C675.098 35.6 673.658 35.98 672.578 36.74C671.498 37.5 670.738 38.82 670.298 40.7H667.598C667.598 39.34 667.678 38.28 667.838 37.52C667.998 36.72 668.418 35.98 669.098 35.3C669.818 34.58 670.998 34.06 672.638 33.74C674.318 33.38 676.138 33.2 678.098 33.2C681.338 33.2 683.898 34.08 685.778 35.84C687.658 37.56 688.598 40.88 688.598 45.8V62H685.598L683.498 59.3H683.198C682.478 60.22 681.418 61 680.018 61.64C678.618 62.28 676.878 62.6 674.798 62.6ZM677.498 59.9C678.818 59.9 679.918 59.58 680.798 58.94C681.678 58.3 682.478 57.42 683.198 56.3V48.2H681.398C678.438 48.2 676.098 48.76 674.378 49.88C672.658 50.96 671.798 52.4 671.798 54.2C671.798 56.04 672.338 57.46 673.418 58.46C674.538 59.42 675.898 59.9 677.498 59.9ZM697.205 29.6C697.205 27.56 696.925 26.06 696.365 25.1C695.805 24.1 694.685 23.6 693.005 23.6H691.805V22.4H697.205C698.685 22.4 699.785 22.6 700.505 23C701.265 23.36 701.805 24.04 702.125 25.04C702.445 26.04 702.605 27.56 702.605 29.6V62H697.205V29.6ZM728.536 29.6C728.536 27.56 728.256 26.06 727.696 25.1C727.136 24.1 726.016 23.6 724.336 23.6H723.136V22.4H728.536C730.016 22.4 731.116 22.6 731.836 23C732.596 23.36 733.136 24.04 733.456 25.04C733.776 26.04 733.936 27.56 733.936 29.6V59.6H755.236V62H728.536V29.6ZM773.474 62.6C769.634 62.6 766.594 61.96 764.354 60.68C762.114 59.36 760.514 57.42 759.554 54.86C758.634 52.3 758.174 48.98 758.174 44.9V29.6C758.174 27.56 757.894 26.06 757.334 25.1C756.774 24.1 755.654 23.6 753.974 23.6H752.774V22.4H758.174C759.654 22.4 760.754 22.6 761.474 23C762.234 23.36 762.774 24.04 763.094 25.04C763.414 26.04 763.574 27.56 763.574 29.6V46.7C763.574 51.14 764.394 54.5 766.034 56.78C767.674 59.06 770.394 60.2 774.194 60.2C777.234 60.2 779.634 59.66 781.394 58.58C783.194 57.5 784.474 55.86 785.234 53.66C785.994 51.46 786.374 48.54 786.374 44.9V22.4H788.774V44.9C788.774 49.06 788.334 52.42 787.454 54.98C786.574 57.5 785.014 59.4 782.774 60.68C780.574 61.96 777.474 62.6 773.474 62.6ZM843.886 64.7C841.006 64.7 838.766 64.26 837.166 63.38C835.566 62.5 834.426 61.14 833.746 59.3C833.106 57.42 832.786 54.92 832.786 51.8V28.7L817.786 62H816.586L800.986 28.1V62H798.586V22.4H804.286L818.686 53.6L832.786 22.4H838.186V51.8C838.186 55.52 838.646 58.4 839.566 60.44C840.526 62.48 841.966 63.5 843.886 63.5V64.7ZM854.908 62C853.428 62 852.308 61.82 851.548 61.46C850.828 61.06 850.308 60.36 849.988 59.36C849.668 58.36 849.508 56.84 849.508 54.8V22.4H854.908V54.8C854.908 56.84 855.188 58.36 855.748 59.36C856.308 60.32 857.428 60.8 859.108 60.8H860.308V62H854.908Z" fill="#363131"/>
<path d="M62.0879 233.924V237H39.9688V233.924H62.0879ZM41.0234 194.344V237H37.4199V194.344H41.0234ZM66.3066 221.648V220.682C66.3066 218.377 66.6387 216.248 67.3027 214.295C67.9668 212.342 68.9141 210.652 70.1445 209.227C71.3945 207.801 72.8887 206.697 74.627 205.916C76.3652 205.115 78.2988 204.715 80.4277 204.715C82.5762 204.715 84.5195 205.115 86.2578 205.916C87.9961 206.697 89.4902 207.801 90.7402 209.227C91.9902 210.652 92.9473 212.342 93.6113 214.295C94.2754 216.248 94.6074 218.377 94.6074 220.682V221.648C94.6074 223.953 94.2754 226.082 93.6113 228.035C92.9473 229.969 91.9902 231.648 90.7402 233.074C89.5098 234.5 88.0254 235.613 86.2871 236.414C84.5488 237.195 82.6152 237.586 80.4863 237.586C78.3379 237.586 76.3945 237.195 74.6562 236.414C72.918 235.613 71.4238 234.5 70.1738 233.074C68.9238 231.648 67.9668 229.969 67.3027 228.035C66.6387 226.082 66.3066 223.953 66.3066 221.648ZM69.793 220.682V221.648C69.793 223.387 70.0273 225.037 70.4961 226.6C70.9648 228.143 71.6484 229.52 72.5469 230.73C73.4453 231.922 74.5586 232.859 75.8867 233.543C77.2148 234.227 78.748 234.568 80.4863 234.568C82.2051 234.568 83.7188 234.227 85.0273 233.543C86.3555 232.859 87.4688 231.922 88.3672 230.73C89.2656 229.52 89.9395 228.143 90.3887 226.6C90.8574 225.037 91.0918 223.387 91.0918 221.648V220.682C91.0918 218.963 90.8574 217.332 90.3887 215.789C89.9395 214.246 89.2559 212.869 88.3379 211.658C87.4395 210.447 86.3262 209.49 84.998 208.787C83.6699 208.084 82.1465 207.732 80.4277 207.732C78.709 207.732 77.1855 208.084 75.8574 208.787C74.5488 209.49 73.4355 210.447 72.5176 211.658C71.6191 212.869 70.9355 214.246 70.4668 215.789C70.0176 217.332 69.793 218.963 69.793 220.682ZM105.359 210.545V237H101.873V205.301H105.271L105.359 210.545ZM116.58 205.066L116.492 208.289C116.102 208.23 115.721 208.182 115.35 208.143C114.979 208.104 114.578 208.084 114.148 208.084C112.625 208.084 111.287 208.367 110.135 208.934C109.002 209.48 108.045 210.252 107.264 211.248C106.482 212.225 105.887 213.377 105.477 214.705C105.066 216.014 104.832 217.42 104.773 218.924L103.484 219.422C103.484 217.352 103.699 215.428 104.129 213.65C104.559 211.873 105.213 210.32 106.092 208.992C106.99 207.645 108.113 206.6 109.461 205.857C110.828 205.096 112.43 204.715 114.266 204.715C114.715 204.715 115.154 204.754 115.584 204.832C116.033 204.891 116.365 204.969 116.58 205.066ZM133.748 237.586C131.678 237.586 129.773 237.205 128.035 236.443C126.316 235.682 124.812 234.607 123.523 233.221C122.254 231.834 121.268 230.193 120.564 228.299C119.881 226.385 119.539 224.295 119.539 222.029V220.77C119.539 218.328 119.9 216.121 120.623 214.148C121.346 212.176 122.342 210.486 123.611 209.08C124.881 207.674 126.326 206.6 127.947 205.857C129.588 205.096 131.307 204.715 133.104 204.715C135.115 204.715 136.902 205.076 138.465 205.799C140.027 206.502 141.336 207.508 142.391 208.816C143.465 210.105 144.275 211.639 144.822 213.416C145.369 215.174 145.643 217.117 145.643 219.246V221.385H121.648V218.396H142.156V217.986C142.117 216.209 141.756 214.549 141.072 213.006C140.408 211.443 139.412 210.174 138.084 209.197C136.756 208.221 135.096 207.732 133.104 207.732C131.619 207.732 130.252 208.045 129.002 208.67C127.771 209.295 126.707 210.193 125.809 211.365C124.93 212.518 124.246 213.895 123.758 215.496C123.289 217.078 123.055 218.836 123.055 220.77V222.029C123.055 223.787 123.309 225.428 123.816 226.951C124.344 228.455 125.086 229.783 126.043 230.936C127.02 232.088 128.172 232.986 129.5 233.631C130.828 234.275 132.293 234.598 133.895 234.598C135.77 234.598 137.43 234.256 138.875 233.572C140.32 232.869 141.619 231.766 142.771 230.262L144.969 231.961C144.285 232.977 143.426 233.914 142.391 234.773C141.375 235.633 140.154 236.316 138.729 236.824C137.303 237.332 135.643 237.586 133.748 237.586ZM155.867 211.863V237H152.352V205.301H155.721L155.867 211.863ZM155.223 219.188L153.523 218.309C153.641 216.434 153.992 214.676 154.578 213.035C155.184 211.395 156.023 209.949 157.098 208.699C158.172 207.449 159.461 206.473 160.965 205.77C162.469 205.066 164.178 204.715 166.092 204.715C167.635 204.715 169.031 204.93 170.281 205.359C171.551 205.77 172.625 206.424 173.504 207.322C174.402 208.201 175.096 209.354 175.584 210.779C176.072 212.205 176.316 213.914 176.316 215.906V237H172.83V216.023C172.83 213.914 172.498 212.264 171.834 211.072C171.189 209.881 170.281 209.031 169.109 208.523C167.957 208.016 166.619 207.762 165.096 207.762C163.299 207.762 161.775 208.133 160.525 208.875C159.295 209.598 158.289 210.545 157.508 211.717C156.746 212.869 156.18 214.109 155.809 215.438C155.438 216.746 155.242 217.996 155.223 219.188ZM176.287 216.434L173.943 216.492C174.041 214.949 174.393 213.475 174.998 212.068C175.623 210.662 176.473 209.412 177.547 208.318C178.621 207.205 179.9 206.326 181.385 205.682C182.889 205.037 184.578 204.715 186.453 204.715C188.094 204.715 189.559 204.939 190.848 205.389C192.137 205.818 193.221 206.512 194.1 207.469C194.998 208.406 195.682 209.607 196.15 211.072C196.619 212.537 196.854 214.295 196.854 216.346V237H193.338V216.316C193.338 214.07 193.006 212.332 192.342 211.102C191.697 209.852 190.799 208.982 189.646 208.494C188.494 208.006 187.146 207.762 185.604 207.762C184.08 207.781 182.742 208.064 181.59 208.611C180.438 209.139 179.471 209.842 178.689 210.721C177.928 211.58 177.342 212.508 176.932 213.504C176.541 214.5 176.326 215.477 176.287 216.434ZM239.686 231.316V214.969C239.686 213.465 239.373 212.166 238.748 211.072C238.123 209.979 237.205 209.139 235.994 208.553C234.783 207.967 233.289 207.674 231.512 207.674C229.871 207.674 228.406 207.967 227.117 208.553C225.848 209.119 224.842 209.891 224.1 210.867C223.377 211.824 223.016 212.889 223.016 214.061L219.5 214.031C219.5 212.84 219.793 211.688 220.379 210.574C220.965 209.461 221.795 208.465 222.869 207.586C223.943 206.707 225.223 206.014 226.707 205.506C228.211 204.979 229.861 204.715 231.658 204.715C233.924 204.715 235.916 205.096 237.635 205.857C239.373 206.619 240.73 207.762 241.707 209.285C242.684 210.809 243.172 212.723 243.172 215.027V230.35C243.172 231.443 243.25 232.576 243.406 233.748C243.582 234.92 243.826 235.887 244.139 236.648V237H240.418C240.184 236.297 239.998 235.418 239.861 234.363C239.744 233.289 239.686 232.273 239.686 231.316ZM240.506 218.543L240.564 221.238H233.68C231.883 221.238 230.271 221.404 228.846 221.736C227.439 222.049 226.248 222.518 225.271 223.143C224.295 223.748 223.543 224.48 223.016 225.34C222.508 226.199 222.254 227.176 222.254 228.27C222.254 229.402 222.537 230.438 223.104 231.375C223.689 232.312 224.51 233.064 225.564 233.631C226.639 234.178 227.908 234.451 229.373 234.451C231.326 234.451 233.045 234.09 234.529 233.367C236.033 232.645 237.273 231.697 238.25 230.525C239.227 229.354 239.881 228.074 240.213 226.688L241.736 228.709C241.482 229.686 241.014 230.691 240.33 231.727C239.666 232.742 238.797 233.699 237.723 234.598C236.648 235.477 235.379 236.199 233.914 236.766C232.469 237.312 230.828 237.586 228.992 237.586C226.922 237.586 225.115 237.195 223.572 236.414C222.049 235.633 220.857 234.568 219.998 233.221C219.158 231.854 218.738 230.311 218.738 228.592C218.738 227.029 219.07 225.633 219.734 224.402C220.398 223.152 221.355 222.098 222.605 221.238C223.875 220.359 225.398 219.695 227.176 219.246C228.973 218.777 230.984 218.543 233.211 218.543H240.506ZM273.436 205.301H276.688V236.443C276.688 239.197 276.16 241.561 275.105 243.533C274.07 245.506 272.596 247.02 270.682 248.074C268.787 249.129 266.551 249.656 263.973 249.656C262.664 249.656 261.316 249.451 259.93 249.041C258.562 248.65 257.264 248.045 256.033 247.225C254.822 246.424 253.787 245.428 252.928 244.236L254.891 242.098C256.18 243.66 257.557 244.803 259.021 245.525C260.486 246.268 262.068 246.639 263.768 246.639C265.779 246.639 267.479 246.238 268.865 245.438C270.271 244.637 271.336 243.484 272.059 241.98C272.801 240.477 273.172 238.67 273.172 236.561V212.273L273.436 205.301ZM251.17 221.473V220.857C251.17 218.396 251.443 216.18 251.99 214.207C252.557 212.215 253.367 210.516 254.422 209.109C255.477 207.684 256.756 206.6 258.26 205.857C259.783 205.096 261.502 204.715 263.416 204.715C265.252 204.715 266.883 205.018 268.309 205.623C269.734 206.229 270.965 207.098 272 208.23C273.035 209.363 273.865 210.711 274.49 212.273C275.135 213.836 275.604 215.574 275.896 217.488V225.311C275.662 227.107 275.232 228.758 274.607 230.262C273.982 231.746 273.152 233.045 272.117 234.158C271.082 235.252 269.832 236.102 268.367 236.707C266.922 237.293 265.252 237.586 263.357 237.586C261.463 237.586 259.764 237.195 258.26 236.414C256.756 235.633 255.477 234.529 254.422 233.104C253.367 231.658 252.557 229.949 251.99 227.977C251.443 226.004 251.17 223.836 251.17 221.473ZM254.686 220.857V221.473C254.686 223.328 254.871 225.047 255.242 226.629C255.613 228.211 256.18 229.588 256.941 230.76C257.703 231.932 258.67 232.85 259.842 233.514C261.014 234.178 262.391 234.51 263.973 234.51C265.984 234.51 267.674 234.129 269.041 233.367C270.408 232.586 271.492 231.561 272.293 230.291C273.094 229.002 273.68 227.596 274.051 226.072V216.961C273.836 215.926 273.504 214.871 273.055 213.797C272.625 212.723 272.02 211.736 271.238 210.838C270.477 209.92 269.5 209.188 268.309 208.641C267.137 208.074 265.711 207.791 264.031 207.791C262.43 207.791 261.033 208.123 259.842 208.787C258.67 209.451 257.703 210.379 256.941 211.57C256.18 212.742 255.613 214.119 255.242 215.701C254.871 217.283 254.686 219.002 254.686 220.857ZM294.646 229.588L302.293 205.301H304.754L303.289 211.834L295.291 237H292.83L294.646 229.588ZM286.707 205.301L293.416 229.734L294.852 237H292.303L283.104 205.301H286.707ZM314.275 229.646L320.809 205.301H324.412L315.213 237H312.693L314.275 229.646ZM305.252 205.301L312.781 229.383L314.686 237H312.225L304.051 211.805L302.674 205.301H305.252ZM351.746 230.848V192H355.262V237H351.98L351.746 230.848ZM329.744 221.473V220.857C329.744 218.396 330.027 216.18 330.594 214.207C331.16 212.215 331.971 210.516 333.025 209.109C334.1 207.684 335.389 206.6 336.893 205.857C338.396 205.096 340.096 204.715 341.99 204.715C343.846 204.715 345.486 205.018 346.912 205.623C348.338 206.229 349.559 207.098 350.574 208.23C351.609 209.363 352.439 210.711 353.064 212.273C353.709 213.836 354.178 215.574 354.471 217.488V225.311C354.236 227.107 353.807 228.758 353.182 230.262C352.557 231.746 351.727 233.045 350.691 234.158C349.656 235.252 348.406 236.102 346.941 236.707C345.496 237.293 343.826 237.586 341.932 237.586C340.057 237.586 338.367 237.195 336.863 236.414C335.359 235.633 334.08 234.529 333.025 233.104C331.971 231.658 331.16 229.949 330.594 227.977C330.027 226.004 329.744 223.836 329.744 221.473ZM333.26 220.857V221.473C333.26 223.328 333.445 225.047 333.816 226.629C334.188 228.211 334.754 229.588 335.516 230.76C336.277 231.932 337.244 232.85 338.416 233.514C339.588 234.178 340.975 234.51 342.576 234.51C344.588 234.51 346.277 234.129 347.645 233.367C349.012 232.586 350.105 231.561 350.926 230.291C351.746 229.002 352.342 227.596 352.713 226.072V216.961C352.479 215.926 352.137 214.871 351.688 213.797C351.238 212.723 350.623 211.736 349.842 210.838C349.08 209.92 348.104 209.188 346.912 208.641C345.74 208.074 344.314 207.791 342.635 207.791C341.014 207.791 339.617 208.123 338.445 208.787C337.273 209.451 336.297 210.379 335.516 211.57C334.754 212.742 334.188 214.119 333.816 215.701C333.445 217.283 333.26 219.002 333.26 220.857ZM383.475 228.914C383.475 228.055 383.26 227.205 382.83 226.365C382.4 225.525 381.57 224.754 380.34 224.051C379.129 223.348 377.342 222.752 374.979 222.264C373.221 221.873 371.648 221.434 370.262 220.945C368.895 220.457 367.742 219.871 366.805 219.188C365.867 218.504 365.154 217.684 364.666 216.727C364.178 215.77 363.934 214.637 363.934 213.328C363.934 212.156 364.188 211.053 364.695 210.018C365.223 208.963 365.965 208.045 366.922 207.264C367.898 206.463 369.07 205.838 370.438 205.389C371.824 204.939 373.377 204.715 375.096 204.715C377.537 204.715 379.627 205.135 381.365 205.975C383.123 206.795 384.461 207.918 385.379 209.344C386.316 210.77 386.785 212.381 386.785 214.178H383.299C383.299 213.084 382.977 212.049 382.332 211.072C381.707 210.096 380.779 209.295 379.549 208.67C378.338 208.045 376.854 207.732 375.096 207.732C373.279 207.732 371.805 208.006 370.672 208.553C369.539 209.1 368.709 209.793 368.182 210.633C367.674 211.473 367.42 212.342 367.42 213.24C367.42 213.943 367.527 214.588 367.742 215.174C367.977 215.74 368.387 216.268 368.973 216.756C369.578 217.244 370.438 217.703 371.551 218.133C372.664 218.562 374.109 218.982 375.887 219.393C378.445 219.959 380.535 220.652 382.156 221.473C383.797 222.273 385.008 223.27 385.789 224.461C386.57 225.633 386.961 227.059 386.961 228.738C386.961 230.047 386.688 231.248 386.141 232.342C385.594 233.416 384.803 234.344 383.768 235.125C382.752 235.906 381.521 236.512 380.076 236.941C378.65 237.371 377.049 237.586 375.271 237.586C372.596 237.586 370.33 237.146 368.475 236.268C366.639 235.369 365.242 234.197 364.285 232.752C363.348 231.287 362.879 229.734 362.879 228.094H366.365C366.482 229.734 367 231.033 367.918 231.99C368.836 232.928 369.959 233.592 371.287 233.982C372.635 234.373 373.963 234.568 375.271 234.568C377.068 234.568 378.572 234.305 379.783 233.777C380.994 233.25 381.912 232.557 382.537 231.697C383.162 230.838 383.475 229.91 383.475 228.914ZM428.826 231.316V214.969C428.826 213.465 428.514 212.166 427.889 211.072C427.264 209.979 426.346 209.139 425.135 208.553C423.924 207.967 422.43 207.674 420.652 207.674C419.012 207.674 417.547 207.967 416.258 208.553C414.988 209.119 413.982 209.891 413.24 210.867C412.518 211.824 412.156 212.889 412.156 214.061L408.641 214.031C408.641 212.84 408.934 211.688 409.52 210.574C410.105 209.461 410.936 208.465 412.01 207.586C413.084 206.707 414.363 206.014 415.848 205.506C417.352 204.979 419.002 204.715 420.799 204.715C423.064 204.715 425.057 205.096 426.775 205.857C428.514 206.619 429.871 207.762 430.848 209.285C431.824 210.809 432.312 212.723 432.312 215.027V230.35C432.312 231.443 432.391 232.576 432.547 233.748C432.723 234.92 432.967 235.887 433.279 236.648V237H429.559C429.324 236.297 429.139 235.418 429.002 234.363C428.885 233.289 428.826 232.273 428.826 231.316ZM429.646 218.543L429.705 221.238H422.82C421.023 221.238 419.412 221.404 417.986 221.736C416.58 222.049 415.389 222.518 414.412 223.143C413.436 223.748 412.684 224.48 412.156 225.34C411.648 226.199 411.395 227.176 411.395 228.27C411.395 229.402 411.678 230.438 412.244 231.375C412.83 232.312 413.65 233.064 414.705 233.631C415.779 234.178 417.049 234.451 418.514 234.451C420.467 234.451 422.186 234.09 423.67 233.367C425.174 232.645 426.414 231.697 427.391 230.525C428.367 229.354 429.021 228.074 429.354 226.688L430.877 228.709C430.623 229.686 430.154 230.691 429.471 231.727C428.807 232.742 427.938 233.699 426.863 234.598C425.789 235.477 424.52 236.199 423.055 236.766C421.609 237.312 419.969 237.586 418.133 237.586C416.062 237.586 414.256 237.195 412.713 236.414C411.189 235.633 409.998 234.568 409.139 233.221C408.299 231.854 407.879 230.311 407.879 228.592C407.879 227.029 408.211 225.633 408.875 224.402C409.539 223.152 410.496 222.098 411.746 221.238C413.016 220.359 414.539 219.695 416.316 219.246C418.113 218.777 420.125 218.543 422.352 218.543H429.646ZM462.576 205.301H465.828V236.443C465.828 239.197 465.301 241.561 464.246 243.533C463.211 245.506 461.736 247.02 459.822 248.074C457.928 249.129 455.691 249.656 453.113 249.656C451.805 249.656 450.457 249.451 449.07 249.041C447.703 248.65 446.404 248.045 445.174 247.225C443.963 246.424 442.928 245.428 442.068 244.236L444.031 242.098C445.32 243.66 446.697 244.803 448.162 245.525C449.627 246.268 451.209 246.639 452.908 246.639C454.92 246.639 456.619 246.238 458.006 245.438C459.412 244.637 460.477 243.484 461.199 241.98C461.941 240.477 462.312 238.67 462.312 236.561V212.273L462.576 205.301ZM440.311 221.473V220.857C440.311 218.396 440.584 216.18 441.131 214.207C441.697 212.215 442.508 210.516 443.562 209.109C444.617 207.684 445.896 206.6 447.4 205.857C448.924 205.096 450.643 204.715 452.557 204.715C454.393 204.715 456.023 205.018 457.449 205.623C458.875 206.229 460.105 207.098 461.141 208.23C462.176 209.363 463.006 210.711 463.631 212.273C464.275 213.836 464.744 215.574 465.037 217.488V225.311C464.803 227.107 464.373 228.758 463.748 230.262C463.123 231.746 462.293 233.045 461.258 234.158C460.223 235.252 458.973 236.102 457.508 236.707C456.062 237.293 454.393 237.586 452.498 237.586C450.604 237.586 448.904 237.195 447.4 236.414C445.896 235.633 444.617 234.529 443.562 233.104C442.508 231.658 441.697 229.949 441.131 227.977C440.584 226.004 440.311 223.836 440.311 221.473ZM443.826 220.857V221.473C443.826 223.328 444.012 225.047 444.383 226.629C444.754 228.211 445.32 229.588 446.082 230.76C446.844 231.932 447.811 232.85 448.982 233.514C450.154 234.178 451.531 234.51 453.113 234.51C455.125 234.51 456.814 234.129 458.182 233.367C459.549 232.586 460.633 231.561 461.434 230.291C462.234 229.002 462.82 227.596 463.191 226.072V216.961C462.977 215.926 462.645 214.871 462.195 213.797C461.766 212.723 461.16 211.736 460.379 210.838C459.617 209.92 458.641 209.188 457.449 208.641C456.277 208.074 454.852 207.791 453.172 207.791C451.57 207.791 450.174 208.123 448.982 208.787C447.811 209.451 446.844 210.379 446.082 211.57C445.32 212.742 444.754 214.119 444.383 215.701C444.012 217.283 443.826 219.002 443.826 220.857ZM508.924 231.316V214.969C508.924 213.465 508.611 212.166 507.986 211.072C507.361 209.979 506.443 209.139 505.232 208.553C504.021 207.967 502.527 207.674 500.75 207.674C499.109 207.674 497.645 207.967 496.355 208.553C495.086 209.119 494.08 209.891 493.338 210.867C492.615 211.824 492.254 212.889 492.254 214.061L488.738 214.031C488.738 212.84 489.031 211.688 489.617 210.574C490.203 209.461 491.033 208.465 492.107 207.586C493.182 206.707 494.461 206.014 495.945 205.506C497.449 204.979 499.1 204.715 500.896 204.715C503.162 204.715 505.154 205.096 506.873 205.857C508.611 206.619 509.969 207.762 510.945 209.285C511.922 210.809 512.41 212.723 512.41 215.027V230.35C512.41 231.443 512.488 232.576 512.645 233.748C512.82 234.92 513.064 235.887 513.377 236.648V237H509.656C509.422 236.297 509.236 235.418 509.1 234.363C508.982 233.289 508.924 232.273 508.924 231.316ZM509.744 218.543L509.803 221.238H502.918C501.121 221.238 499.51 221.404 498.084 221.736C496.678 222.049 495.486 222.518 494.51 223.143C493.533 223.748 492.781 224.48 492.254 225.34C491.746 226.199 491.492 227.176 491.492 228.27C491.492 229.402 491.775 230.438 492.342 231.375C492.928 232.312 493.748 233.064 494.803 233.631C495.877 234.178 497.146 234.451 498.611 234.451C500.564 234.451 502.283 234.09 503.768 233.367C505.271 232.645 506.512 231.697 507.488 230.525C508.465 229.354 509.119 228.074 509.451 226.688L510.975 228.709C510.721 229.686 510.252 230.691 509.568 231.727C508.904 232.742 508.035 233.699 506.961 234.598C505.887 235.477 504.617 236.199 503.152 236.766C501.707 237.312 500.066 237.586 498.23 237.586C496.16 237.586 494.354 237.195 492.811 236.414C491.287 235.633 490.096 234.568 489.236 233.221C488.396 231.854 487.977 230.311 487.977 228.592C487.977 227.029 488.309 225.633 488.973 224.402C489.637 223.152 490.594 222.098 491.844 221.238C493.113 220.359 494.637 219.695 496.414 219.246C498.211 218.777 500.223 218.543 502.449 218.543H509.744ZM540.799 228.914C540.799 228.055 540.584 227.205 540.154 226.365C539.725 225.525 538.895 224.754 537.664 224.051C536.453 223.348 534.666 222.752 532.303 222.264C530.545 221.873 528.973 221.434 527.586 220.945C526.219 220.457 525.066 219.871 524.129 219.188C523.191 218.504 522.479 217.684 521.99 216.727C521.502 215.77 521.258 214.637 521.258 213.328C521.258 212.156 521.512 211.053 522.02 210.018C522.547 208.963 523.289 208.045 524.246 207.264C525.223 206.463 526.395 205.838 527.762 205.389C529.148 204.939 530.701 204.715 532.42 204.715C534.861 204.715 536.951 205.135 538.689 205.975C540.447 206.795 541.785 207.918 542.703 209.344C543.641 210.77 544.109 212.381 544.109 214.178H540.623C540.623 213.084 540.301 212.049 539.656 211.072C539.031 210.096 538.104 209.295 536.873 208.67C535.662 208.045 534.178 207.732 532.42 207.732C530.604 207.732 529.129 208.006 527.996 208.553C526.863 209.1 526.033 209.793 525.506 210.633C524.998 211.473 524.744 212.342 524.744 213.24C524.744 213.943 524.852 214.588 525.066 215.174C525.301 215.74 525.711 216.268 526.297 216.756C526.902 217.244 527.762 217.703 528.875 218.133C529.988 218.562 531.434 218.982 533.211 219.393C535.77 219.959 537.859 220.652 539.48 221.473C541.121 222.273 542.332 223.27 543.113 224.461C543.895 225.633 544.285 227.059 544.285 228.738C544.285 230.047 544.012 231.248 543.465 232.342C542.918 233.416 542.127 234.344 541.092 235.125C540.076 235.906 538.846 236.512 537.4 236.941C535.975 237.371 534.373 237.586 532.596 237.586C529.92 237.586 527.654 237.146 525.799 236.268C523.963 235.369 522.566 234.197 521.609 232.752C520.672 231.287 520.203 229.734 520.203 228.094H523.689C523.807 229.734 524.324 231.033 525.242 231.99C526.16 232.928 527.283 233.592 528.611 233.982C529.959 234.373 531.287 234.568 532.596 234.568C534.393 234.568 535.896 234.305 537.107 233.777C538.318 233.25 539.236 232.557 539.861 231.697C540.486 230.838 540.799 229.91 540.799 228.914ZM572.82 230.848V192H576.336V237H573.055L572.82 230.848ZM550.818 221.473V220.857C550.818 218.396 551.102 216.18 551.668 214.207C552.234 212.215 553.045 210.516 554.1 209.109C555.174 207.684 556.463 206.6 557.967 205.857C559.471 205.096 561.17 204.715 563.064 204.715C564.92 204.715 566.561 205.018 567.986 205.623C569.412 206.229 570.633 207.098 571.648 208.23C572.684 209.363 573.514 210.711 574.139 212.273C574.783 213.836 575.252 215.574 575.545 217.488V225.311C575.311 227.107 574.881 228.758 574.256 230.262C573.631 231.746 572.801 233.045 571.766 234.158C570.73 235.252 569.48 236.102 568.016 236.707C566.57 237.293 564.9 237.586 563.006 237.586C561.131 237.586 559.441 237.195 557.938 236.414C556.434 235.633 555.154 234.529 554.1 233.104C553.045 231.658 552.234 229.949 551.668 227.977C551.102 226.004 550.818 223.836 550.818 221.473ZM554.334 220.857V221.473C554.334 223.328 554.52 225.047 554.891 226.629C555.262 228.211 555.828 229.588 556.59 230.76C557.352 231.932 558.318 232.85 559.49 233.514C560.662 234.178 562.049 234.51 563.65 234.51C565.662 234.51 567.352 234.129 568.719 233.367C570.086 232.586 571.18 231.561 572 230.291C572.82 229.002 573.416 227.596 573.787 226.072V216.961C573.553 215.926 573.211 214.871 572.762 213.797C572.312 212.723 571.697 211.736 570.916 210.838C570.154 209.92 569.178 209.188 567.986 208.641C566.814 208.074 565.389 207.791 563.709 207.791C562.088 207.791 560.691 208.123 559.52 208.787C558.348 209.451 557.371 210.379 556.59 211.57C555.828 212.742 555.262 214.119 554.891 215.701C554.52 217.283 554.334 219.002 554.334 220.857ZM620.809 230.848V192H624.324V237H621.043L620.809 230.848ZM598.807 221.473V220.857C598.807 218.396 599.09 216.18 599.656 214.207C600.223 212.215 601.033 210.516 602.088 209.109C603.162 207.684 604.451 206.6 605.955 205.857C607.459 205.096 609.158 204.715 611.053 204.715C612.908 204.715 614.549 205.018 615.975 205.623C617.4 206.229 618.621 207.098 619.637 208.23C620.672 209.363 621.502 210.711 622.127 212.273C622.771 213.836 623.24 215.574 623.533 217.488V225.311C623.299 227.107 622.869 228.758 622.244 230.262C621.619 231.746 620.789 233.045 619.754 234.158C618.719 235.252 617.469 236.102 616.004 236.707C614.559 237.293 612.889 237.586 610.994 237.586C609.119 237.586 607.43 237.195 605.926 236.414C604.422 235.633 603.143 234.529 602.088 233.104C601.033 231.658 600.223 229.949 599.656 227.977C599.09 226.004 598.807 223.836 598.807 221.473ZM602.322 220.857V221.473C602.322 223.328 602.508 225.047 602.879 226.629C603.25 228.211 603.816 229.588 604.578 230.76C605.34 231.932 606.307 232.85 607.479 233.514C608.65 234.178 610.037 234.51 611.639 234.51C613.65 234.51 615.34 234.129 616.707 233.367C618.074 232.586 619.168 231.561 619.988 230.291C620.809 229.002 621.404 227.596 621.775 226.072V216.961C621.541 215.926 621.199 214.871 620.75 213.797C620.301 212.723 619.686 211.736 618.904 210.838C618.143 209.92 617.166 209.188 615.975 208.641C614.803 208.074 613.377 207.791 611.697 207.791C610.076 207.791 608.68 208.123 607.508 208.787C606.336 209.451 605.359 210.379 604.578 211.57C603.816 212.742 603.25 214.119 602.879 215.701C602.508 217.283 602.322 219.002 602.322 220.857ZM652.537 228.914C652.537 228.055 652.322 227.205 651.893 226.365C651.463 225.525 650.633 224.754 649.402 224.051C648.191 223.348 646.404 222.752 644.041 222.264C642.283 221.873 640.711 221.434 639.324 220.945C637.957 220.457 636.805 219.871 635.867 219.188C634.93 218.504 634.217 217.684 633.729 216.727C633.24 215.77 632.996 214.637 632.996 213.328C632.996 212.156 633.25 211.053 633.758 210.018C634.285 208.963 635.027 208.045 635.984 207.264C636.961 206.463 638.133 205.838 639.5 205.389C640.887 204.939 642.439 204.715 644.158 204.715C646.6 204.715 648.689 205.135 650.428 205.975C652.186 206.795 653.523 207.918 654.441 209.344C655.379 210.77 655.848 212.381 655.848 214.178H652.361C652.361 213.084 652.039 212.049 651.395 211.072C650.77 210.096 649.842 209.295 648.611 208.67C647.4 208.045 645.916 207.732 644.158 207.732C642.342 207.732 640.867 208.006 639.734 208.553C638.602 209.1 637.771 209.793 637.244 210.633C636.736 211.473 636.482 212.342 636.482 213.24C636.482 213.943 636.59 214.588 636.805 215.174C637.039 215.74 637.449 216.268 638.035 216.756C638.641 217.244 639.5 217.703 640.613 218.133C641.727 218.562 643.172 218.982 644.949 219.393C647.508 219.959 649.598 220.652 651.219 221.473C652.859 222.273 654.07 223.27 654.852 224.461C655.633 225.633 656.023 227.059 656.023 228.738C656.023 230.047 655.75 231.248 655.203 232.342C654.656 233.416 653.865 234.344 652.83 235.125C651.814 235.906 650.584 236.512 649.139 236.941C647.713 237.371 646.111 237.586 644.334 237.586C641.658 237.586 639.393 237.146 637.537 236.268C635.701 235.369 634.305 234.197 633.348 232.752C632.41 231.287 631.941 229.734 631.941 228.094H635.428C635.545 229.734 636.062 231.033 636.98 231.99C637.898 232.928 639.021 233.592 640.35 233.982C641.697 234.373 643.025 234.568 644.334 234.568C646.131 234.568 647.635 234.305 648.846 233.777C650.057 233.25 650.975 232.557 651.6 231.697C652.225 230.838 652.537 229.91 652.537 228.914ZM683.24 231.316V214.969C683.24 213.465 682.928 212.166 682.303 211.072C681.678 209.979 680.76 209.139 679.549 208.553C678.338 207.967 676.844 207.674 675.066 207.674C673.426 207.674 671.961 207.967 670.672 208.553C669.402 209.119 668.396 209.891 667.654 210.867C666.932 211.824 666.57 212.889 666.57 214.061L663.055 214.031C663.055 212.84 663.348 211.688 663.934 210.574C664.52 209.461 665.35 208.465 666.424 207.586C667.498 206.707 668.777 206.014 670.262 205.506C671.766 204.979 673.416 204.715 675.213 204.715C677.479 204.715 679.471 205.096 681.189 205.857C682.928 206.619 684.285 207.762 685.262 209.285C686.238 210.809 686.727 212.723 686.727 215.027V230.35C686.727 231.443 686.805 232.576 686.961 233.748C687.137 234.92 687.381 235.887 687.693 236.648V237H683.973C683.738 236.297 683.553 235.418 683.416 234.363C683.299 233.289 683.24 232.273 683.24 231.316ZM684.061 218.543L684.119 221.238H677.234C675.438 221.238 673.826 221.404 672.4 221.736C670.994 222.049 669.803 222.518 668.826 223.143C667.85 223.748 667.098 224.48 666.57 225.34C666.062 226.199 665.809 227.176 665.809 228.27C665.809 229.402 666.092 230.438 666.658 231.375C667.244 232.312 668.064 233.064 669.119 233.631C670.193 234.178 671.463 234.451 672.928 234.451C674.881 234.451 676.6 234.09 678.084 233.367C679.588 232.645 680.828 231.697 681.805 230.525C682.781 229.354 683.436 228.074 683.768 226.688L685.291 228.709C685.037 229.686 684.568 230.691 683.885 231.727C683.221 232.742 682.352 233.699 681.277 234.598C680.203 235.477 678.934 236.199 677.469 236.766C676.023 237.312 674.383 237.586 672.547 237.586C670.477 237.586 668.67 237.195 667.127 236.414C665.604 235.633 664.412 234.568 663.553 233.221C662.713 231.854 662.293 230.311 662.293 228.592C662.293 227.029 662.625 225.633 663.289 224.402C663.953 223.152 664.91 222.098 666.16 221.238C667.43 220.359 668.953 219.695 670.73 219.246C672.527 218.777 674.539 218.543 676.766 218.543H684.061Z" fill="#3B2C2C"/>
<path d="M37.8594 163V120.168H42.8398V158.547H61.8535V163H37.8594ZM96.1602 146.887C96.1602 149.523 95.8184 151.877 95.1348 153.947C94.4512 156.018 93.4648 157.766 92.1758 159.191C90.8867 160.617 89.3242 161.711 87.4883 162.473C85.6719 163.215 83.6113 163.586 81.3066 163.586C79.1582 163.586 77.1855 163.215 75.3887 162.473C73.6113 161.711 72.0684 160.617 70.7598 159.191C69.4707 157.766 68.4648 156.018 67.7422 153.947C67.0391 151.877 66.6875 149.523 66.6875 146.887C66.6875 143.371 67.2832 140.383 68.4746 137.922C69.666 135.441 71.3652 133.557 73.5723 132.268C75.7988 130.959 78.4453 130.305 81.5117 130.305C84.4414 130.305 87 130.959 89.1875 132.268C91.3945 133.576 93.1035 135.471 94.3145 137.951C95.5449 140.412 96.1602 143.391 96.1602 146.887ZM71.7266 146.887C71.7266 149.465 72.0684 151.701 72.752 153.596C73.4355 155.49 74.4902 156.955 75.916 157.99C77.3418 159.025 79.1777 159.543 81.4238 159.543C83.6504 159.543 85.4766 159.025 86.9023 157.99C88.3477 156.955 89.4121 155.49 90.0957 153.596C90.7793 151.701 91.1211 149.465 91.1211 146.887C91.1211 144.328 90.7793 142.121 90.0957 140.266C89.4121 138.391 88.3574 136.945 86.9316 135.93C85.5059 134.914 83.6602 134.406 81.3945 134.406C78.0547 134.406 75.6035 135.51 74.041 137.717C72.498 139.924 71.7266 142.98 71.7266 146.887ZM119.158 130.305C119.803 130.305 120.477 130.344 121.18 130.422C121.883 130.48 122.508 130.568 123.055 130.686L122.439 135.197C121.912 135.061 121.326 134.953 120.682 134.875C120.037 134.797 119.432 134.758 118.865 134.758C117.576 134.758 116.355 135.021 115.203 135.549C114.07 136.057 113.074 136.799 112.215 137.775C111.355 138.732 110.682 139.895 110.193 141.262C109.705 142.609 109.461 144.113 109.461 145.773V163H104.568V130.891H108.611L109.139 136.809H109.344C110.008 135.617 110.809 134.533 111.746 133.557C112.684 132.561 113.768 131.77 114.998 131.184C116.248 130.598 117.635 130.305 119.158 130.305ZM141.482 130.305C144.217 130.305 146.561 130.91 148.514 132.121C150.467 133.332 151.961 135.031 152.996 137.219C154.031 139.387 154.549 141.926 154.549 144.836V147.854H132.371C132.43 151.623 133.367 154.494 135.184 156.467C137 158.439 139.559 159.426 142.859 159.426C144.891 159.426 146.688 159.24 148.25 158.869C149.812 158.498 151.434 157.951 153.113 157.229V161.506C151.492 162.229 149.881 162.756 148.279 163.088C146.697 163.42 144.822 163.586 142.654 163.586C139.568 163.586 136.873 162.961 134.568 161.711C132.283 160.441 130.506 158.586 129.236 156.145C127.967 153.703 127.332 150.715 127.332 147.18C127.332 143.723 127.908 140.734 129.061 138.215C130.232 135.676 131.873 133.723 133.982 132.355C136.111 130.988 138.611 130.305 141.482 130.305ZM141.424 134.289C138.826 134.289 136.756 135.139 135.213 136.838C133.67 138.537 132.752 140.91 132.459 143.957H149.451C149.432 142.043 149.129 140.363 148.543 138.918C147.977 137.453 147.107 136.32 145.936 135.52C144.764 134.699 143.26 134.289 141.424 134.289ZM197.674 130.305C201.209 130.305 203.875 131.232 205.672 133.088C207.469 134.924 208.367 137.883 208.367 141.965V163H203.562V142.199C203.562 139.602 202.996 137.658 201.863 136.369C200.75 135.061 199.09 134.406 196.883 134.406C193.777 134.406 191.521 135.305 190.115 137.102C188.709 138.898 188.006 141.545 188.006 145.041V163H183.172V142.199C183.172 140.461 182.918 139.016 182.41 137.863C181.922 136.711 181.18 135.852 180.184 135.285C179.207 134.699 177.967 134.406 176.463 134.406C174.334 134.406 172.625 134.846 171.336 135.725C170.047 136.604 169.109 137.912 168.523 139.65C167.957 141.369 167.674 143.488 167.674 146.008V163H162.811V130.891H166.736L167.469 135.432H167.732C168.377 134.318 169.188 133.381 170.164 132.619C171.141 131.857 172.234 131.281 173.445 130.891C174.656 130.5 175.945 130.305 177.312 130.305C179.754 130.305 181.795 130.764 183.436 131.682C185.096 132.58 186.297 133.957 187.039 135.812H187.303C188.357 133.957 189.803 132.58 191.639 131.682C193.475 130.764 195.486 130.305 197.674 130.305ZM245.955 130.363C249.783 130.363 252.625 131.223 254.48 132.941C256.336 134.66 257.264 137.404 257.264 141.174V163H253.719L252.781 158.254H252.547C251.648 159.426 250.711 160.412 249.734 161.213C248.758 161.994 247.625 162.59 246.336 163C245.066 163.391 243.504 163.586 241.648 163.586C239.695 163.586 237.957 163.244 236.434 162.561C234.93 161.877 233.738 160.842 232.859 159.455C232 158.068 231.57 156.311 231.57 154.182C231.57 150.979 232.84 148.518 235.379 146.799C237.918 145.08 241.785 144.143 246.98 143.986L252.518 143.752V141.789C252.518 139.016 251.922 137.072 250.73 135.959C249.539 134.846 247.859 134.289 245.691 134.289C244.012 134.289 242.41 134.533 240.887 135.021C239.363 135.51 237.918 136.086 236.551 136.75L235.057 133.059C236.502 132.316 238.162 131.682 240.037 131.154C241.912 130.627 243.885 130.363 245.955 130.363ZM252.459 147.18L247.566 147.385C243.562 147.541 240.74 148.195 239.1 149.348C237.459 150.5 236.639 152.131 236.639 154.24C236.639 156.076 237.195 157.434 238.309 158.312C239.422 159.191 240.896 159.631 242.732 159.631C245.584 159.631 247.918 158.84 249.734 157.258C251.551 155.676 252.459 153.303 252.459 150.139V147.18ZM276.248 177.414C272.029 177.414 268.777 176.623 266.492 175.041C264.207 173.479 263.064 171.281 263.064 168.449C263.064 166.438 263.699 164.719 264.969 163.293C266.258 161.867 268.035 160.92 270.301 160.451C269.461 160.061 268.738 159.475 268.133 158.693C267.547 157.912 267.254 157.014 267.254 155.998C267.254 154.826 267.576 153.801 268.221 152.922C268.885 152.023 269.891 151.164 271.238 150.344C269.559 149.66 268.191 148.508 267.137 146.887C266.102 145.246 265.584 143.342 265.584 141.174C265.584 138.869 266.062 136.906 267.02 135.285C267.977 133.645 269.363 132.395 271.18 131.535C272.996 130.676 275.193 130.246 277.771 130.246C278.338 130.246 278.904 130.275 279.471 130.334C280.057 130.373 280.613 130.441 281.141 130.539C281.668 130.617 282.127 130.715 282.518 130.832H293.533V133.967L287.615 134.699C288.201 135.461 288.689 136.379 289.08 137.453C289.471 138.527 289.666 139.719 289.666 141.027C289.666 144.23 288.582 146.779 286.414 148.674C284.246 150.549 281.268 151.486 277.479 151.486C276.58 151.486 275.662 151.408 274.725 151.252C273.768 151.779 273.035 152.365 272.527 153.01C272.039 153.654 271.795 154.396 271.795 155.236C271.795 155.861 271.98 156.359 272.352 156.73C272.742 157.102 273.299 157.375 274.021 157.551C274.744 157.707 275.613 157.785 276.629 157.785H282.283C285.779 157.785 288.455 158.518 290.311 159.982C292.186 161.447 293.123 163.586 293.123 166.398C293.123 169.953 291.678 172.678 288.787 174.572C285.896 176.467 281.717 177.414 276.248 177.414ZM276.395 173.605C279.051 173.605 281.248 173.332 282.986 172.785C284.744 172.258 286.053 171.486 286.912 170.471C287.791 169.475 288.23 168.283 288.23 166.896C288.23 165.607 287.938 164.631 287.352 163.967C286.766 163.322 285.906 162.893 284.773 162.678C283.641 162.443 282.254 162.326 280.613 162.326H275.047C273.602 162.326 272.342 162.551 271.268 163C270.193 163.449 269.363 164.113 268.777 164.992C268.211 165.871 267.928 166.965 267.928 168.273C267.928 170.012 268.66 171.33 270.125 172.229C271.59 173.146 273.68 173.605 276.395 173.605ZM277.654 147.941C279.979 147.941 281.727 147.355 282.898 146.184C284.07 145.012 284.656 143.303 284.656 141.057C284.656 138.654 284.061 136.857 282.869 135.666C281.678 134.455 279.92 133.85 277.596 133.85C275.369 133.85 273.65 134.475 272.439 135.725C271.248 136.955 270.652 138.762 270.652 141.145C270.652 143.332 271.258 145.012 272.469 146.184C273.68 147.355 275.408 147.941 277.654 147.941ZM325.994 162.941L320.281 144.25C320.027 143.449 319.783 142.668 319.549 141.906C319.334 141.125 319.129 140.383 318.934 139.68C318.758 138.957 318.592 138.293 318.436 137.688C318.299 137.062 318.182 136.525 318.084 136.076H317.879C317.801 136.525 317.693 137.062 317.557 137.688C317.42 138.293 317.254 138.957 317.059 139.68C316.883 140.402 316.688 141.164 316.473 141.965C316.258 142.746 316.014 143.537 315.74 144.338L309.764 162.941H304.285L295.438 130.832H300.477L305.105 148.557C305.418 149.729 305.711 150.891 305.984 152.043C306.277 153.176 306.521 154.25 306.717 155.266C306.932 156.262 307.088 157.131 307.186 157.873H307.42C307.537 157.385 307.664 156.799 307.801 156.115C307.957 155.432 308.123 154.709 308.299 153.947C308.494 153.166 308.699 152.395 308.914 151.633C309.129 150.852 309.344 150.119 309.559 149.436L315.477 130.832H320.721L326.434 149.406C326.727 150.344 327.01 151.32 327.283 152.336C327.576 153.352 327.84 154.338 328.074 155.295C328.309 156.232 328.475 157.072 328.572 157.814H328.807C328.885 157.15 329.031 156.33 329.246 155.354C329.461 154.377 329.705 153.303 329.979 152.131C330.271 150.959 330.574 149.768 330.887 148.557L335.574 130.832H340.525L331.648 162.941H325.994ZM357.811 163.586C353.748 163.586 350.525 162.199 348.143 159.426C345.779 156.652 344.598 152.531 344.598 147.062C344.598 141.535 345.809 137.365 348.23 134.553C350.652 131.721 353.875 130.305 357.898 130.305C359.598 130.305 361.082 130.529 362.352 130.979C363.621 131.428 364.715 132.033 365.633 132.795C366.551 133.537 367.322 134.387 367.947 135.344H368.299C368.221 134.738 368.143 133.908 368.064 132.854C367.986 131.799 367.947 130.939 367.947 130.275V117.414H372.811V163H368.885L368.152 158.43H367.947C367.342 159.387 366.57 160.256 365.633 161.037C364.715 161.818 363.611 162.443 362.322 162.912C361.053 163.361 359.549 163.586 357.811 163.586ZM358.572 159.543C362.01 159.543 364.441 158.566 365.867 156.613C367.293 154.66 368.006 151.76 368.006 147.912V147.033C368.006 142.951 367.322 139.816 365.955 137.629C364.607 135.441 362.146 134.348 358.572 134.348C355.584 134.348 353.348 135.5 351.863 137.805C350.379 140.09 349.637 143.215 349.637 147.18C349.637 151.125 350.369 154.172 351.834 156.32C353.318 158.469 355.564 159.543 358.572 159.543ZM403.895 154.211C403.895 156.262 403.377 157.99 402.342 159.396C401.326 160.783 399.861 161.828 397.947 162.531C396.053 163.234 393.787 163.586 391.15 163.586C388.904 163.586 386.961 163.41 385.32 163.059C383.68 162.707 382.244 162.209 381.014 161.564V157.082C382.322 157.727 383.885 158.312 385.701 158.84C387.518 159.367 389.373 159.631 391.268 159.631C394.041 159.631 396.053 159.182 397.303 158.283C398.553 157.385 399.178 156.164 399.178 154.621C399.178 153.742 398.924 152.971 398.416 152.307C397.928 151.623 397.098 150.969 395.926 150.344C394.754 149.699 393.133 148.996 391.062 148.234C389.012 147.453 387.234 146.682 385.73 145.92C384.246 145.139 383.094 144.191 382.273 143.078C381.473 141.965 381.072 140.52 381.072 138.742C381.072 136.027 382.166 133.947 384.354 132.502C386.561 131.037 389.451 130.305 393.025 130.305C394.959 130.305 396.766 130.5 398.445 130.891C400.145 131.262 401.727 131.77 403.191 132.414L401.551 136.311C400.223 135.744 398.807 135.266 397.303 134.875C395.799 134.484 394.266 134.289 392.703 134.289C390.457 134.289 388.729 134.66 387.518 135.402C386.326 136.145 385.73 137.16 385.73 138.449C385.73 139.445 386.004 140.266 386.551 140.91C387.117 141.555 388.016 142.16 389.246 142.727C390.477 143.293 392.098 143.957 394.109 144.719C396.121 145.461 397.859 146.232 399.324 147.033C400.789 147.814 401.912 148.771 402.693 149.904C403.494 151.018 403.895 152.453 403.895 154.211ZM439.314 130.363C443.143 130.363 445.984 131.223 447.84 132.941C449.695 134.66 450.623 137.404 450.623 141.174V163H447.078L446.141 158.254H445.906C445.008 159.426 444.07 160.412 443.094 161.213C442.117 161.994 440.984 162.59 439.695 163C438.426 163.391 436.863 163.586 435.008 163.586C433.055 163.586 431.316 163.244 429.793 162.561C428.289 161.877 427.098 160.842 426.219 159.455C425.359 158.068 424.93 156.311 424.93 154.182C424.93 150.979 426.199 148.518 428.738 146.799C431.277 145.08 435.145 144.143 440.34 143.986L445.877 143.752V141.789C445.877 139.016 445.281 137.072 444.09 135.959C442.898 134.846 441.219 134.289 439.051 134.289C437.371 134.289 435.77 134.533 434.246 135.021C432.723 135.51 431.277 136.086 429.91 136.75L428.416 133.059C429.861 132.316 431.521 131.682 433.396 131.154C435.271 130.627 437.244 130.363 439.314 130.363ZM445.818 147.18L440.926 147.385C436.922 147.541 434.1 148.195 432.459 149.348C430.818 150.5 429.998 152.131 429.998 154.24C429.998 156.076 430.555 157.434 431.668 158.312C432.781 159.191 434.256 159.631 436.092 159.631C438.943 159.631 441.277 158.84 443.094 157.258C444.91 155.676 445.818 153.303 445.818 150.139V147.18ZM469.607 177.414C465.389 177.414 462.137 176.623 459.852 175.041C457.566 173.479 456.424 171.281 456.424 168.449C456.424 166.438 457.059 164.719 458.328 163.293C459.617 161.867 461.395 160.92 463.66 160.451C462.82 160.061 462.098 159.475 461.492 158.693C460.906 157.912 460.613 157.014 460.613 155.998C460.613 154.826 460.936 153.801 461.58 152.922C462.244 152.023 463.25 151.164 464.598 150.344C462.918 149.66 461.551 148.508 460.496 146.887C459.461 145.246 458.943 143.342 458.943 141.174C458.943 138.869 459.422 136.906 460.379 135.285C461.336 133.645 462.723 132.395 464.539 131.535C466.355 130.676 468.553 130.246 471.131 130.246C471.697 130.246 472.264 130.275 472.83 130.334C473.416 130.373 473.973 130.441 474.5 130.539C475.027 130.617 475.486 130.715 475.877 130.832H486.893V133.967L480.975 134.699C481.561 135.461 482.049 136.379 482.439 137.453C482.83 138.527 483.025 139.719 483.025 141.027C483.025 144.23 481.941 146.779 479.773 148.674C477.605 150.549 474.627 151.486 470.838 151.486C469.939 151.486 469.021 151.408 468.084 151.252C467.127 151.779 466.395 152.365 465.887 153.01C465.398 153.654 465.154 154.396 465.154 155.236C465.154 155.861 465.34 156.359 465.711 156.73C466.102 157.102 466.658 157.375 467.381 157.551C468.104 157.707 468.973 157.785 469.988 157.785H475.643C479.139 157.785 481.814 158.518 483.67 159.982C485.545 161.447 486.482 163.586 486.482 166.398C486.482 169.953 485.037 172.678 482.146 174.572C479.256 176.467 475.076 177.414 469.607 177.414ZM469.754 173.605C472.41 173.605 474.607 173.332 476.346 172.785C478.104 172.258 479.412 171.486 480.271 170.471C481.15 169.475 481.59 168.283 481.59 166.896C481.59 165.607 481.297 164.631 480.711 163.967C480.125 163.322 479.266 162.893 478.133 162.678C477 162.443 475.613 162.326 473.973 162.326H468.406C466.961 162.326 465.701 162.551 464.627 163C463.553 163.449 462.723 164.113 462.137 164.992C461.57 165.871 461.287 166.965 461.287 168.273C461.287 170.012 462.02 171.33 463.484 172.229C464.949 173.146 467.039 173.605 469.754 173.605ZM471.014 147.941C473.338 147.941 475.086 147.355 476.258 146.184C477.43 145.012 478.016 143.303 478.016 141.057C478.016 138.654 477.42 136.857 476.229 135.666C475.037 134.455 473.279 133.85 470.955 133.85C468.729 133.85 467.01 134.475 465.799 135.725C464.607 136.955 464.012 138.762 464.012 141.145C464.012 143.332 464.617 145.012 465.828 146.184C467.039 147.355 468.768 147.941 471.014 147.941ZM520.818 130.363C524.646 130.363 527.488 131.223 529.344 132.941C531.199 134.66 532.127 137.404 532.127 141.174V163H528.582L527.645 158.254H527.41C526.512 159.426 525.574 160.412 524.598 161.213C523.621 161.994 522.488 162.59 521.199 163C519.93 163.391 518.367 163.586 516.512 163.586C514.559 163.586 512.82 163.244 511.297 162.561C509.793 161.877 508.602 160.842 507.723 159.455C506.863 158.068 506.434 156.311 506.434 154.182C506.434 150.979 507.703 148.518 510.242 146.799C512.781 145.08 516.648 144.143 521.844 143.986L527.381 143.752V141.789C527.381 139.016 526.785 137.072 525.594 135.959C524.402 134.846 522.723 134.289 520.555 134.289C518.875 134.289 517.273 134.533 515.75 135.021C514.227 135.51 512.781 136.086 511.414 136.75L509.92 133.059C511.365 132.316 513.025 131.682 514.9 131.154C516.775 130.627 518.748 130.363 520.818 130.363ZM527.322 147.18L522.43 147.385C518.426 147.541 515.604 148.195 513.963 149.348C512.322 150.5 511.502 152.131 511.502 154.24C511.502 156.076 512.059 157.434 513.172 158.312C514.285 159.191 515.76 159.631 517.596 159.631C520.447 159.631 522.781 158.84 524.598 157.258C526.414 155.676 527.322 153.303 527.322 150.139V147.18ZM562.918 154.211C562.918 156.262 562.4 157.99 561.365 159.396C560.35 160.783 558.885 161.828 556.971 162.531C555.076 163.234 552.811 163.586 550.174 163.586C547.928 163.586 545.984 163.41 544.344 163.059C542.703 162.707 541.268 162.209 540.037 161.564V157.082C541.346 157.727 542.908 158.312 544.725 158.84C546.541 159.367 548.396 159.631 550.291 159.631C553.064 159.631 555.076 159.182 556.326 158.283C557.576 157.385 558.201 156.164 558.201 154.621C558.201 153.742 557.947 152.971 557.439 152.307C556.951 151.623 556.121 150.969 554.949 150.344C553.777 149.699 552.156 148.996 550.086 148.234C548.035 147.453 546.258 146.682 544.754 145.92C543.27 145.139 542.117 144.191 541.297 143.078C540.496 141.965 540.096 140.52 540.096 138.742C540.096 136.027 541.189 133.947 543.377 132.502C545.584 131.037 548.475 130.305 552.049 130.305C553.982 130.305 555.789 130.5 557.469 130.891C559.168 131.262 560.75 131.77 562.215 132.414L560.574 136.311C559.246 135.744 557.83 135.266 556.326 134.875C554.822 134.484 553.289 134.289 551.727 134.289C549.48 134.289 547.752 134.66 546.541 135.402C545.35 136.145 544.754 137.16 544.754 138.449C544.754 139.445 545.027 140.266 545.574 140.91C546.141 141.555 547.039 142.16 548.27 142.727C549.5 143.293 551.121 143.957 553.133 144.719C555.145 145.461 556.883 146.232 558.348 147.033C559.812 147.814 560.936 148.771 561.717 149.904C562.518 151.018 562.918 152.453 562.918 154.211ZM582.166 163.586C578.104 163.586 574.881 162.199 572.498 159.426C570.135 156.652 568.953 152.531 568.953 147.062C568.953 141.535 570.164 137.365 572.586 134.553C575.008 131.721 578.23 130.305 582.254 130.305C583.953 130.305 585.438 130.529 586.707 130.979C587.977 131.428 589.07 132.033 589.988 132.795C590.906 133.537 591.678 134.387 592.303 135.344H592.654C592.576 134.738 592.498 133.908 592.42 132.854C592.342 131.799 592.303 130.939 592.303 130.275V117.414H597.166V163H593.24L592.508 158.43H592.303C591.697 159.387 590.926 160.256 589.988 161.037C589.07 161.818 587.967 162.443 586.678 162.912C585.408 163.361 583.904 163.586 582.166 163.586ZM582.928 159.543C586.365 159.543 588.797 158.566 590.223 156.613C591.648 154.66 592.361 151.76 592.361 147.912V147.033C592.361 142.951 591.678 139.816 590.311 137.629C588.963 135.441 586.502 134.348 582.928 134.348C579.939 134.348 577.703 135.5 576.219 137.805C574.734 140.09 573.992 143.215 573.992 147.18C573.992 151.125 574.725 154.172 576.189 156.32C577.674 158.469 579.92 159.543 582.928 159.543ZM634.49 163.586C630.428 163.586 627.205 162.199 624.822 159.426C622.459 156.652 621.277 152.531 621.277 147.062C621.277 141.535 622.488 137.365 624.91 134.553C627.332 131.721 630.555 130.305 634.578 130.305C636.277 130.305 637.762 130.529 639.031 130.979C640.301 131.428 641.395 132.033 642.312 132.795C643.23 133.537 644.002 134.387 644.627 135.344H644.979C644.9 134.738 644.822 133.908 644.744 132.854C644.666 131.799 644.627 130.939 644.627 130.275V117.414H649.49V163H645.564L644.832 158.43H644.627C644.021 159.387 643.25 160.256 642.312 161.037C641.395 161.818 640.291 162.443 639.002 162.912C637.732 163.361 636.229 163.586 634.49 163.586ZM635.252 159.543C638.689 159.543 641.121 158.566 642.547 156.613C643.973 154.66 644.686 151.76 644.686 147.912V147.033C644.686 142.951 644.002 139.816 642.635 137.629C641.287 135.441 638.826 134.348 635.252 134.348C632.264 134.348 630.027 135.5 628.543 137.805C627.059 140.09 626.316 143.215 626.316 147.18C626.316 151.125 627.049 154.172 628.514 156.32C629.998 158.469 632.244 159.543 635.252 159.543ZM680.574 154.211C680.574 156.262 680.057 157.99 679.021 159.396C678.006 160.783 676.541 161.828 674.627 162.531C672.732 163.234 670.467 163.586 667.83 163.586C665.584 163.586 663.641 163.41 662 163.059C660.359 162.707 658.924 162.209 657.693 161.564V157.082C659.002 157.727 660.564 158.312 662.381 158.84C664.197 159.367 666.053 159.631 667.947 159.631C670.721 159.631 672.732 159.182 673.982 158.283C675.232 157.385 675.857 156.164 675.857 154.621C675.857 153.742 675.604 152.971 675.096 152.307C674.607 151.623 673.777 150.969 672.605 150.344C671.434 149.699 669.812 148.996 667.742 148.234C665.691 147.453 663.914 146.682 662.41 145.92C660.926 145.139 659.773 144.191 658.953 143.078C658.152 141.965 657.752 140.52 657.752 138.742C657.752 136.027 658.846 133.947 661.033 132.502C663.24 131.037 666.131 130.305 669.705 130.305C671.639 130.305 673.445 130.5 675.125 130.891C676.824 131.262 678.406 131.77 679.871 132.414L678.23 136.311C676.902 135.744 675.486 135.266 673.982 134.875C672.479 134.484 670.945 134.289 669.383 134.289C667.137 134.289 665.408 134.66 664.197 135.402C663.006 136.145 662.41 137.16 662.41 138.449C662.41 139.445 662.684 140.266 663.23 140.91C663.797 141.555 664.695 142.16 665.926 142.727C667.156 143.293 668.777 143.957 670.789 144.719C672.801 145.461 674.539 146.232 676.004 147.033C677.469 147.814 678.592 148.771 679.373 149.904C680.174 151.018 680.574 152.453 680.574 154.211ZM700.408 130.363C704.236 130.363 707.078 131.223 708.934 132.941C710.789 134.66 711.717 137.404 711.717 141.174V163H708.172L707.234 158.254H707C706.102 159.426 705.164 160.412 704.188 161.213C703.211 161.994 702.078 162.59 700.789 163C699.52 163.391 697.957 163.586 696.102 163.586C694.148 163.586 692.41 163.244 690.887 162.561C689.383 161.877 688.191 160.842 687.312 159.455C686.453 158.068 686.023 156.311 686.023 154.182C686.023 150.979 687.293 148.518 689.832 146.799C692.371 145.08 696.238 144.143 701.434 143.986L706.971 143.752V141.789C706.971 139.016 706.375 137.072 705.184 135.959C703.992 134.846 702.312 134.289 700.145 134.289C698.465 134.289 696.863 134.533 695.34 135.021C693.816 135.51 692.371 136.086 691.004 136.75L689.51 133.059C690.955 132.316 692.615 131.682 694.49 131.154C696.365 130.627 698.338 130.363 700.408 130.363ZM706.912 147.18L702.02 147.385C698.016 147.541 695.193 148.195 693.553 149.348C691.912 150.5 691.092 152.131 691.092 154.24C691.092 156.076 691.648 157.434 692.762 158.312C693.875 159.191 695.35 159.631 697.186 159.631C700.037 159.631 702.371 158.84 704.188 157.258C706.004 155.676 706.912 153.303 706.912 150.139V147.18Z" fill="#3B2C2C"/>
<rect x="1043" y="591" width="39" height="129" fill="#645858"/>
<rect x="1193" y="631" width="39" height="89" fill="#645858"/>
<rect x="951.5" y="532.5" width="328" height="187" stroke="#2FEB00"/>
<path fill-rule="evenodd" clip-rule="evenodd" d="M1132 532H1093V720H1132V676.166L1112 557L1132 553.643V532Z" fill="#645858"/>
<path fill-rule="evenodd" clip-rule="evenodd" d="M1122.15 617.493L1106 720H1132V676.166L1122.15 617.493Z" fill="#121212" fill-opacity="0.4"/>
<rect x="993" y="631" width="39" height="89" fill="#645858"/>
<path fill-rule="evenodd" clip-rule="evenodd" d="M1026.02 631L1012 720H1032V631H1026.02Z" fill="#121212" fill-opacity="0.4"/>
<path fill-rule="evenodd" clip-rule="evenodd" d="M1072.37 591L1052 720H1082V591H1072.37Z" fill="#121212" fill-opacity="0.4"/>
<path fill-rule="evenodd" clip-rule="evenodd" d="M1160.46 557L1122 563.455L1148.27 720H1186.13L1187.77 719.724L1160.46 557Z" fill="#645858"/>
<path fill-rule="evenodd" clip-rule="evenodd" d="M1187.77 719.724L1173.04 631.952L1173.94 720H1186.13L1187.77 719.724Z" fill="#121212" fill-opacity="0.4"/>
<path fill-rule="evenodd" clip-rule="evenodd" d="M1179.08 513H1200V411.181L1167.34 400.113L1179.08 513Z" fill="#4F4F4F"/>
<path fill-rule="evenodd" clip-rule="evenodd" d="M1135 334.5L1103 325V513H1134.95L1118 351.595L1135 353.795V334.5Z" fill="#4F4F4F"/>
<path d="M1026 456.5L1059 441V513H1026V456.5Z" fill="#4F4F4F"/>
<path d="M1065 393L1097 380V513H1065V393Z" fill="#4F4F4F"/>
<path fill-rule="evenodd" clip-rule="evenodd" d="M1157.62 365.031L1124.8 358.924L1140.98 513H1173.16L1157.62 365.031Z" fill="#4F4F4F"/>
<rect x="866" y="324" width="38" height="119" fill="#D9D9D9"/>
<path d="M866 324H904L895.5 298H876L866 324Z" fill="#A2A2A2"/>
<rect x="914" y="362" width="37" height="81" fill="#D9D9D9"/>
<path d="M916 324H932.5L951 362H914L916 324Z" fill="#A2A2A2"/>
<path d="M854 326H837.5L819 364H856L854 326Z" fill="#A2A2A2"/>
<rect x="819" y="364" width="37" height="81" fill="#D9D9D9"/>
<rect x="1061.09" y="142.616" width="50.8209" height="128.426" fill="#AEAEAE"/>
<path d="M1111.91 168.097V271.042H1085.94L1111.91 168.097Z" fill="#727272" fill-opacity="0.4"/>
<path d="M1061.09 142.616H1111.91L1102.27 110H1071.6L1061.09 142.616Z" fill="#919191"/>
<rect x="1014.79" y="183.386" width="37.2687" height="87.6555" fill="#AEAEAE"/>
<rect width="37.2687" height="102.944" transform="matrix(-1 0 0 1 1158.21 168.097)" fill="#AEAEAE"/>
<path d="M1158.21 168.097H1120.95V142.616H1140.14L1158.21 168.097Z" fill="#919191"/>
<rect x="973" y="217.021" width="32.7512" height="54.0203" fill="#AEAEAE"/>
<rect width="32.7512" height="54.0203" transform="matrix(-1 0 0 1 1200 217.021)" fill="#AEAEAE"/>
<path d="M1158.21 217.021V271.042H1137.89L1158.21 217.021Z" fill="#727272" fill-opacity="0.4"/>
<path d="M1014.79 183.386H1052.05V142.616H1030.03L1014.79 183.386Z" fill="#919191"/>
<path d="M991.634 183.386H1005.75V217.021H973L991.634 183.386Z" fill="#919191"/>
<path d="M1052.05 142.616V271.042H1018.17L1052.05 142.616Z" fill="#727272" fill-opacity="0.4"/>
<path d="M1005.75 183.386V271.042H979.776L1005.75 183.386Z" fill="#727272" fill-opacity="0.4"/>
<path d="M1181.37 183.386H1167.25V217.021H1200L1181.37 183.386Z" fill="#919191"/>
<rect x="68" y="263" width="28" height="142" fill="#363131"/>
<rect x="104" y="281" width="28" height="124" fill="#363131"/>
<rect x="140" y="302" width="28" height="103" fill="#363131"/>
<path fill-rule="evenodd" clip-rule="evenodd" d="M228.576 329.351L200.691 331.48L208.643 405H236.759L228.576 329.351Z" fill="#363131"/>
<rect x="32" y="302" width="28" height="103" fill="#363131"/>
<path fill-rule="evenodd" clip-rule="evenodd" d="M204 280.645H176V405H200.61L192 325.395L204 324.478V280.645Z" fill="#363131"/>
<rect x="49.2862" y="468" width="25.9321" height="112.99" transform="rotate(6.75287 49.2862 468)" fill="#363131"/>
<rect x="83" y="433" width="25.9321" height="150.036" fill="#363131"/>
<rect x="116.932" y="445.966" width="25.9321" height="137.07" fill="#363131"/>
<rect x="150.864" y="470.046" width="25.9321" height="112.99" fill="#363131"/>
<rect x="184.796" y="445.966" width="25.9321" height="137.07" fill="#363131"/>
<rect x="218.729" y="505.24" width="25.9321" height="77.7964" fill="#363131"/>
<rect x="825.09" y="142.616" width="50.8209" height="128.426" fill="#AEAEAE"/>
<path d="M875.91 168.097V271.042H849.935L875.91 168.097Z" fill="#727272" fill-opacity="0.4"/>
<path d="M825.09 142.616H875.91L866.272 110H835.604L825.09 142.616Z" fill="#919191"/>
<rect x="778.786" y="183.386" width="37.2687" height="87.6555" fill="#AEAEAE"/>
<rect width="37.2687" height="102.944" transform="matrix(-1 0 0 1 922.214 168.097)" fill="#AEAEAE"/>
<path d="M922.214 168.097H884.945V142.616H899.5L922.214 168.097Z" fill="#919191"/>
<rect x="737" y="217.021" width="32.7512" height="54.0203" fill="#AEAEAE"/>
<rect width="32.7512" height="54.0203" transform="matrix(-1 0 0 1 964 217.021)" fill="#AEAEAE"/>
<path d="M922.214 217.021V271.042H901.886L922.214 217.021Z" fill="#727272" fill-opacity="0.4"/>
<path d="M778.786 183.386H816.055V142.616H804.5L778.786 183.386Z" fill="#919191"/>
<path d="M769.751 183.386V217.021H737L769.751 183.386Z" fill="#919191"/>
<path d="M816.055 142.616V271.042H782.174L816.055 142.616Z" fill="#727272" fill-opacity="0.4"/>
<path d="M769.751 183.386V271.042H743.776L769.751 183.386Z" fill="#727272" fill-opacity="0.4"/>
<path d="M931.249 183.386V217.021H964L931.249 183.386Z" fill="#919191"/>
<rect x="11" y="583" width="258" height="2" fill="#363131"/>
<path fill-rule="evenodd" clip-rule="evenodd" d="M582.092 436H563.57V541.965C569.246 542.605 575.41 543.097 582.092 543.39V436ZM606.329 543.501C603.171 543.628 599.876 543.697 596.426 543.697C593.467 543.697 590.595 543.659 587.806 543.588V445.34H606.329V543.501ZM630.566 541.193C624.928 542.049 618.814 542.757 612.043 543.2V462.687H630.566V541.193ZM654.802 536.431C654.678 536.459 654.553 536.487 654.429 536.514C648.781 537.771 642.844 539.092 636.28 540.253V445.34H654.802V536.431ZM679.039 532.049C672.748 532.684 666.739 533.835 660.516 535.174V488.04H679.039V532.049ZM548.912 539.824C541.911 538.548 535.893 537.057 530.767 535.508L539.489 461.213L557.883 463.41L548.912 539.824Z" fill="#363131"/>
<path d="M506.646 524.392C506.646 524.392 529.145 544.203 597.358 544.203C649.142 544.203 666.285 528.715 701.641 532.677" stroke="#363131" stroke-width="2"/>
<path d="M701.72 531.96C712.735 533.143 718.48 536.211 722 539.582C716.83 536.634 711.417 534.815 701.517 533.407L701.72 531.96Z" fill="#363131"/>
<path d="M500 518.123C502.69 520.54 502.526 520.445 503.93 521.448C504.873 522.123 505.516 522.557 507.221 523.937L506.189 524.948C501.702 521.361 500.409 519.131 500 518.123Z" fill="#363131"/>
<path fill-rule="evenodd" clip-rule="evenodd" d="M944.686 17H931.671V89.9484C935.659 90.389 939.991 90.7276 944.686 90.9294V17ZM961.718 91.0055C959.499 91.093 957.183 91.1403 954.759 91.1403C952.68 91.1403 950.661 91.1147 948.702 91.0656V23.4302H961.718V91.0055ZM978.749 89.4171C974.787 90.0058 970.491 90.4937 965.733 90.7982V35.3719H978.749V89.4171ZM995.78 86.1388C995.692 86.1578 995.605 86.1769 995.517 86.196C991.549 87.061 987.377 87.9703 982.764 88.7699V23.4302H995.78V86.1388ZM1012.81 83.1219C1008.39 83.5593 1004.17 84.3517 999.795 85.2736V52.8252H1012.81V83.1219ZM921.37 88.4744C916.451 87.5962 912.222 86.5696 908.62 85.5031L914.749 34.3573L927.675 35.8695L921.37 88.4744Z" fill="#363131"/>
<path d="M891.67 77.851C891.67 77.851 907.481 91.4888 955.414 91.4888C991.803 91.4888 1003.85 80.8265 1028.69 83.5541" stroke="#363131" stroke-width="2"/>
<path d="M1028.75 83.0609C1036.49 83.8748 1040.53 85.9871 1043 88.308C1039.37 86.2787 1035.56 85.0262 1028.61 84.0567L1028.75 83.0609Z" fill="#363131"/>
<path d="M887 73.5351C888.89 75.1991 888.775 75.1333 889.762 75.8244C890.424 76.2885 890.876 76.5878 892.074 77.5374L891.349 78.2334C888.196 75.7644 887.288 74.229 887 73.5351Z" fill="#363131"/>
</svg>
